<svg width="24" height="24" viewBox="0 0 24 24" fill="none" xmlns="http://www.w3.org/2000/svg">
<path d="M19.8925 3.30249C19.7057 3.11523 19.452 3.01 19.1875 3.01C18.923 3.01 18.6693 3.11523 18.4825 3.30249L11.5925 10.1825L4.7025 3.29249C4.51567 3.10523 4.26202 3 3.9975 3C3.73298 3 3.47933 3.10523 3.2925 3.29249C2.9025 3.68249 2.9025 4.31249 3.2925 4.70249L10.1825 11.5925L3.2925 18.4825C2.9025 18.8725 2.9025 19.5025 3.2925 19.8925C3.6825 20.2825 4.3125 20.2825 4.7025 19.8925L11.5925 13.0025L18.4825 19.8925C18.8725 20.2825 19.5025 20.2825 19.8925 19.8925C20.2825 19.5025 20.2825 18.8725 19.8925 18.4825L13.0025 11.5925L19.8925 4.70249C20.2725 4.32249 20.2725 3.68249 19.8925 3.30249Z" fill="white" fill-opacity="0.8"/>
</svg>
