<svg width="24" height="24" viewBox="0 0 24 24" fill="none" xmlns="http://www.w3.org/2000/svg">
<path fill-rule="evenodd" clip-rule="evenodd" d="M12 4C10.1115 4 8.31874 4.67616 7.01211 5.85213C5.70896 7.02496 5 8.5917 5 10.2V15C5 15.5523 4.55228 16 4 16C3.44772 16 3 15.5523 3 15V10.2C3 7.98919 3.97675 5.89322 5.67418 4.36554C7.36813 2.84098 9.64507 2 12 2C14.3549 2 16.6319 2.84098 18.3258 4.36554C20.0232 5.89322 21 7.98919 21 10.2V15C21 15.5523 20.5523 16 20 16C19.4477 16 19 15.5523 19 15V10.2C19 8.5917 18.291 7.02496 16.9879 5.85213C15.6813 4.67616 13.8885 4 12 4Z" fill="#222222"/>
<path fill-rule="evenodd" clip-rule="evenodd" d="M19 19L19 15C19 14.4477 19.4477 14 20 14C20.5523 14 21 14.4477 21 15L21 19C21 19.7956 20.6839 20.5587 20.1213 21.1213C19.5587 21.6839 18.7956 22 18 22L14 22C13.4477 22 13 21.5523 13 21C13 20.4477 13.4477 20 14 20L18 20C18.2652 20 18.5196 19.8946 18.7071 19.7071C18.8946 19.5196 19 19.2652 19 19Z" fill="#222222"/>
<path d="M4 12H6C6.55228 12 7 12.4477 7 13V16C7 16.5523 6.55228 17 6 17H5C4.44772 17 4 16.5523 4 16V12Z" fill="#222222"/>
<path fill-rule="evenodd" clip-rule="evenodd" d="M3 11H6C7.10457 11 8 11.8954 8 13V16C8 17.1046 7.10457 18 6 18H5C3.89543 18 3 17.1046 3 16V11ZM5 13V16H6V13H5Z" fill="#222222"/>
<path d="M17 13C17 12.4477 17.4477 12 18 12H20V16C20 16.5523 19.5523 17 19 17H18C17.4477 17 17 16.5523 17 16V13Z" fill="#222222"/>
<path fill-rule="evenodd" clip-rule="evenodd" d="M16 13C16 11.8954 16.8954 11 18 11H21V16C21 17.1046 20.1046 18 19 18H18C16.8954 18 16 17.1046 16 16V13ZM19 13H18V16H19V13Z" fill="#222222"/>
</svg>
