<svg width="48" height="48" viewBox="0 0 48 48" fill="none" xmlns="http://www.w3.org/2000/svg">
<path d="M34.18 5.64001C32.3406 4.12718 30.1866 3.04407 27.8753 2.4697C25.564 1.89533 23.1536 1.84419 20.82 2.32001C17.7128 2.94766 14.862 4.48416 12.6294 6.73458C10.3968 8.98499 8.88294 11.8479 8.28 14.96C7.83969 17.2935 7.9197 19.6953 8.51432 21.9943C9.10894 24.2932 10.2035 26.4327 11.72 28.26C13.1274 29.8482 13.9341 31.879 14 34V40C14 41.5913 14.6321 43.1174 15.7574 44.2427C16.8826 45.3679 18.4087 46 20 46H28C29.5913 46 31.1174 45.3679 32.2426 44.2427C33.3679 43.1174 34 41.5913 34 40V34.38C34.0671 32.0383 34.9274 29.7889 36.44 28C39.0902 24.7216 40.3395 20.5297 39.9163 16.3353C39.4932 12.1409 37.4317 8.28299 34.18 5.60001V5.64001ZM30 40C30 40.5304 29.7893 41.0392 29.4142 41.4142C29.0391 41.7893 28.5304 42 28 42H20C19.4696 42 18.9609 41.7893 18.5858 41.4142C18.2107 41.0392 18 40.5304 18 40V38H30V40ZM33.34 25.52C31.329 27.9052 30.1557 30.8841 30 34H26V28C26 27.4696 25.7893 26.9609 25.4142 26.5858C25.0391 26.2107 24.5304 26 24 26C23.4696 26 22.9609 26.2107 22.5858 26.5858C22.2107 26.9609 22 27.4696 22 28V34H18C17.9472 30.9362 16.8139 27.9895 14.8 25.68C13.4713 24.088 12.5778 22.1789 12.2066 20.1387C11.8355 18.0986 11.9993 15.997 12.6822 14.0391C13.365 12.0811 14.5436 10.3335 16.103 8.96667C17.6624 7.59983 19.5494 6.66041 21.58 6.24001C23.3251 5.8807 25.1283 5.9145 26.8587 6.33895C28.5892 6.76341 30.2033 7.56786 31.5841 8.69392C32.9649 9.81998 34.0775 11.2394 34.8414 12.8491C35.6052 14.4587 36.001 16.2183 36 18C36.0148 20.7397 35.0742 23.3989 33.34 25.52V25.52Z" fill="#3D8BFD"/>
</svg>
