<svg width="24" height="24" viewBox="0 0 24 24" fill="none" xmlns="http://www.w3.org/2000/svg">
<path fill-rule="evenodd" clip-rule="evenodd" d="M12 3C7.02944 3 3 7.02944 3 12C3 16.9706 7.02944 21 12 21C16.9706 21 21 16.9706 21 12C21 7.02944 16.9706 3 12 3ZM1 12C1 5.92487 5.92487 1 12 1C18.0751 1 23 5.92487 23 12C23 18.0751 18.0751 23 12 23C5.92487 23 1 18.0751 1 12Z" fill="#222222"/>
<path d="M12 1C5.92487 1 1 5.92487 1 12C1 18.0751 5.92487 23 12 23C18.0751 23 23 18.0751 23 12C23 5.92487 18.0751 1 12 1ZM3.80558 6.94848C4.25255 8.77541 7.2863 10.4398 8.9152 11.3335C9.57608 11.6961 10.0057 11.9318 9.9375 12C9.82654 12.111 9.71435 12.2178 9.60443 12.3224C9.03331 12.8661 8.52325 13.3516 8.5625 14.0625C8.61066 14.9348 9.41198 15.195 10.232 15.4614C11.0258 15.7192 11.8372 15.9828 12 16.8125C12.1126 17.3865 11.8975 18.1712 11.6971 18.9021C11.4021 19.978 11.1391 20.9375 12 20.9375C14.0625 20.25 17.2228 16.5573 17.5 14.0625C17.6898 12.3539 14.75 11.3125 12.6875 10.625C12.0303 10.4059 11.6487 10.7365 11.3258 11.0161C11.0891 11.2212 10.884 11.3988 10.625 11.3125C10.0127 11.1084 7.1875 8.56251 8.5625 7.87501C9.63607 7.33823 9.87142 7.63966 10.2502 8.12485C10.3566 8.26108 10.4743 8.4118 10.625 8.56251C11.4617 8.98085 11.5347 8.38096 11.6185 7.69222C11.6724 7.24909 11.7308 6.76917 12 6.50001C12.5962 5.90378 13.7391 5.41203 14.7881 4.9607C15.7679 4.53911 16.6657 4.15279 16.9596 3.7495C19.7552 5.43363 21.625 8.49846 21.625 12C21.625 17.3157 17.3157 21.625 12 21.625C6.68426 21.625 2.375 17.3157 2.375 12C2.375 10.1473 2.89847 8.41683 3.80558 6.94848Z" fill="#222222"/>
</svg>
