<svg width="48" height="48" viewBox="0 0 48 48" fill="none" xmlns="http://www.w3.org/2000/svg">
<path fill-rule="evenodd" clip-rule="evenodd" d="M14.3058 2.58579C14.6809 2.21071 15.1896 2 15.72 2H32.28C32.8104 2 33.3191 2.21071 33.6942 2.58579L45.4142 14.3058C45.7893 14.6809 46 15.1896 46 15.72V32.28C46 32.8104 45.7893 33.3191 45.4142 33.6942L33.6942 45.4142C33.3191 45.7893 32.8104 46 32.28 46H15.72C15.1896 46 14.6809 45.7893 14.3058 45.4142L2.58579 33.6942C2.21071 33.3191 2 32.8104 2 32.28V15.72C2 15.1896 2.21071 14.6809 2.58579 14.3058L14.3058 2.58579ZM16.5484 6L6 16.5484V31.4516L16.5484 42H31.4516L42 31.4516V16.5484L31.4516 6H16.5484Z" fill="#E35C6A"/>
<path fill-rule="evenodd" clip-rule="evenodd" d="M22 32C22 30.8954 22.891 30 23.99 30H24.01C25.109 30 26 30.8954 26 32C26 33.1046 25.109 34 24.01 34H23.99C22.891 34 22 33.1046 22 32Z" fill="#E35C6A"/>
<path fill-rule="evenodd" clip-rule="evenodd" d="M24 12C25.1046 12 26 12.8954 26 14V26C26 27.1046 25.1046 28 24 28C22.8954 28 22 27.1046 22 26V14C22 12.8954 22.8954 12 24 12Z" fill="#E35C6A"/>
</svg>
