<svg width="24" height="24" viewBox="0 0 24 24" fill="none" xmlns="http://www.w3.org/2000/svg">
<path fill-rule="evenodd" clip-rule="evenodd" d="M18 2C18.5523 2 19 2.44772 19 3V6C19 6.55228 18.5523 7 18 7C17.4477 7 17 6.55228 17 6V3C17 2.44772 17.4477 2 18 2Z" fill="#222222"/>
<path fill-rule="evenodd" clip-rule="evenodd" d="M6 2C6.55228 2 7 2.44772 7 3V6C7 6.55228 6.55228 7 6 7C5.44772 7 5 6.55228 5 6V3C5 2.44772 5.44772 2 6 2Z" fill="#222222"/>
<path fill-rule="evenodd" clip-rule="evenodd" d="M19 6H5C4.44772 6 4 6.44772 4 7V19C4 19.5523 4.44772 20 5 20H19C19.5523 20 20 19.5523 20 19V7C20 6.44771 19.5523 6 19 6ZM5 4C3.34315 4 2 5.34315 2 7V19C2 20.6569 3.34315 22 5 22H19C20.6569 22 22 20.6569 22 19V7C22 5.34315 20.6569 4 19 4H5Z" fill="#222222"/>
<path fill-rule="evenodd" clip-rule="evenodd" d="M16.7071 11.2929C17.0976 11.6834 17.0976 12.3166 16.7071 12.7071L11.7071 17.7071C11.3166 18.0976 10.6834 18.0976 10.2929 17.7071L7.79289 15.2071C7.40237 14.8166 7.40237 14.1834 7.79289 13.7929C8.18342 13.4024 8.81658 13.4024 9.20711 13.7929L11 15.5858L15.2929 11.2929C15.6834 10.9024 16.3166 10.9024 16.7071 11.2929Z" fill="#222222"/>
<path fill-rule="evenodd" clip-rule="evenodd" d="M2 7C2 6.44772 2.44772 6 3 6H21C21.5523 6 22 6.44772 22 7C22 7.55228 21.5523 8 21 8H3C2.44772 8 2 7.55228 2 7Z" fill="#222222"/>
</svg>
