<svg width="24" height="24" viewBox="0 0 24 24" fill="none" xmlns="http://www.w3.org/2000/svg">
<path fill-rule="evenodd" clip-rule="evenodd" d="M18 2C18.5523 2 19 2.44772 19 3V6C19 6.55228 18.5523 7 18 7C17.4477 7 17 6.55228 17 6V3C17 2.44772 17.4477 2 18 2Z" fill="#222222"/>
<path fill-rule="evenodd" clip-rule="evenodd" d="M6 2C6.55228 2 7 2.44772 7 3V6C7 6.55228 6.55228 7 6 7C5.44772 7 5 6.55228 5 6V3C5 2.44772 5.44772 2 6 2Z" fill="#222222"/>
<path fill-rule="evenodd" clip-rule="evenodd" d="M19 6H5C4.44772 6 4 6.44772 4 7V19C4 19.5523 4.44772 20 5 20H19C19.5523 20 20 19.5523 20 19V7C20 6.44771 19.5523 6 19 6ZM5 4C3.34315 4 2 5.34315 2 7V19C2 20.6569 3.34315 22 5 22H19C20.6569 22 22 20.6569 22 19V7C22 5.34315 20.6569 4 19 4H5Z" fill="#222222"/>
<path d="M14 11C14 10.4477 14.4477 10 15 10H17C17.5523 10 18 10.4477 18 11V13C18 13.5523 17.5523 14 17 14H15C14.4477 14 14 13.5523 14 13V11Z" fill="#D9D9D9"/>
<path fill-rule="evenodd" clip-rule="evenodd" d="M15 10C14.4477 10 14 10.4477 14 11V13C14 13.5523 14.4477 14 15 14H17C17.5523 14 18 13.5523 18 13V11C18 10.4477 17.5523 10 17 10H15Z" fill="#222222"/>
<path fill-rule="evenodd" clip-rule="evenodd" d="M2 7C2 6.44772 2.44772 6 3 6H21C21.5523 6 22 6.44772 22 7C22 7.55228 21.5523 8 21 8H3C2.44772 8 2 7.55228 2 7Z" fill="#222222"/>
</svg>
