<svg width="24" height="24" viewBox="0 0 24 24" fill="none" xmlns="http://www.w3.org/2000/svg">
<path fill-rule="evenodd" clip-rule="evenodd" d="M12 6C12.5523 6 13 6.44772 13 7V12.382L16.4472 14.1056C16.9412 14.3526 17.1414 14.9532 16.8944 15.4472C16.6474 15.9412 16.0468 16.1414 15.5528 15.8944L11.5528 13.8944C11.214 13.725 11 13.3788 11 13V7C11 6.44772 11.4477 6 12 6Z" fill="#222222"/>
<path fill-rule="evenodd" clip-rule="evenodd" d="M11.8981 1.00046C11.932 1.00015 11.966 1 12 1C12.034 1 12.068 1.00015 12.1019 1.00046C12.6542 1.00549 13.0978 1.45725 13.0928 2.00952C13.0878 2.56178 12.636 3.0054 12.0837 3.00038C12.0559 3.00013 12.0279 3 12 3C11.9721 3 11.9441 3.00013 11.9163 3.00038C11.364 3.0054 10.9122 2.56178 10.9072 2.00952C10.9022 1.45725 11.3458 1.00549 11.8981 1.00046ZM14.0491 2.15881C14.2148 1.63195 14.7762 1.33915 15.303 1.50481C15.3679 1.5252 15.4325 1.54618 15.4968 1.56773C16.0205 1.74319 16.3027 2.30995 16.1273 2.83362C15.9518 3.35729 15.3851 3.63957 14.8614 3.46411C14.8088 3.44651 14.7561 3.42937 14.7031 3.41272C14.1763 3.24706 13.8834 2.68566 14.0491 2.15881ZM9.95089 2.15881C10.1165 2.68566 9.82375 3.24706 9.29689 3.41272C9.24392 3.42937 9.19116 3.44651 9.13862 3.46411C8.61495 3.63957 8.04819 3.35729 7.87273 2.83362C7.69727 2.30995 7.97955 1.74319 8.50322 1.56773C8.56754 1.54618 8.63213 1.5252 8.69698 1.50481C9.22383 1.33915 9.78522 1.63195 9.95089 2.15881ZM7.01069 3.27421C7.33155 3.72373 7.22725 4.34824 6.77773 4.6691C6.73259 4.70132 6.68776 4.73395 6.64324 4.76698C6.19971 5.09607 5.57338 5.00329 5.24429 4.55975C4.91521 4.11622 5.00799 3.48989 5.45153 3.1608C5.5059 3.12046 5.56066 3.08061 5.6158 3.04125C6.06532 2.72039 6.68983 2.82469 7.01069 3.27421ZM16.9893 3.27421C17.3102 2.82469 17.9347 2.72039 18.3842 3.04125C18.4393 3.08061 18.4941 3.12046 18.5485 3.1608C18.992 3.48989 19.0848 4.11622 18.7557 4.55975C18.4266 5.00329 17.8003 5.09607 17.3568 4.76698C17.3122 4.73395 17.2674 4.70132 17.2223 4.6691C16.7727 4.34824 16.6684 3.72373 16.9893 3.27421ZM4.55975 5.24429C5.00329 5.57338 5.09607 6.19971 4.76698 6.64324C4.73395 6.68776 4.70132 6.73259 4.6691 6.77773C4.34824 7.22725 3.72373 7.33155 3.27421 7.01069C2.82469 6.68983 2.72039 6.06532 3.04125 5.6158C3.08061 5.56066 3.12046 5.5059 3.1608 5.45153C3.48989 5.00799 4.11622 4.91521 4.55975 5.24429ZM19.4402 5.24429C19.8838 4.91521 20.5101 5.00799 20.8392 5.45153C20.8795 5.5059 20.9194 5.56066 20.9587 5.6158C21.2796 6.06532 21.1753 6.68983 20.7258 7.01069C20.2763 7.33155 19.6518 7.22725 19.3309 6.77773C19.2987 6.73259 19.266 6.68776 19.233 6.64324C18.9039 6.19971 18.9967 5.57338 19.4402 5.24429ZM21.1664 7.87273C21.6901 7.69727 22.2568 7.97955 22.4323 8.50322C22.4538 8.56754 22.4748 8.63213 22.4952 8.69698C22.6608 9.22383 22.368 9.78522 21.8412 9.95089C21.3143 10.1165 20.7529 9.82375 20.5873 9.29689C20.5706 9.24392 20.5535 9.19116 20.5359 9.13862C20.3604 8.61495 20.6427 8.04819 21.1664 7.87273ZM2.83362 7.87273C3.35729 8.04819 3.63957 8.61495 3.46411 9.13862C3.44651 9.19116 3.42937 9.24392 3.41272 9.29689C3.24706 9.82375 2.68566 10.1166 2.15881 9.95089C1.63195 9.78522 1.33915 9.22383 1.50481 8.69698C1.5252 8.63213 1.54618 8.56754 1.56773 8.50322C1.74319 7.97955 2.30995 7.69727 2.83362 7.87273ZM2.00952 10.9072C2.56178 10.9122 3.0054 11.364 3.00038 11.9163C3.00013 11.9441 3 11.9721 3 12C3 12.0279 3.00013 12.0559 3.00038 12.0837C3.0054 12.636 2.56178 13.0878 2.00952 13.0928C1.45725 13.0978 1.00549 12.6542 1.00046 12.1019C1.00015 12.068 1 12.034 1 12C1 11.966 1.00015 11.932 1.00046 11.8981C1.00549 11.3458 1.45725 10.9022 2.00952 10.9072ZM21.9905 10.9072C22.5427 10.9022 22.9945 11.3458 22.9995 11.8981C22.9998 11.932 23 11.966 23 12C23 12.034 22.9998 12.068 22.9995 12.1019C22.9945 12.6542 22.5427 13.0978 21.9905 13.0928C21.4382 13.0878 20.9946 12.636 20.9996 12.0837C20.9999 12.0559 21 12.0279 21 12C21 11.9721 20.9999 11.9441 20.9996 11.9163C20.9946 11.364 21.4382 10.9122 21.9905 10.9072ZM21.8412 14.0491C22.368 14.2148 22.6608 14.7762 22.4952 15.303C22.4748 15.3679 22.4538 15.4325 22.4323 15.4968C22.2568 16.0205 21.6901 16.3027 21.1664 16.1273C20.6427 15.9518 20.3604 15.3851 20.5359 14.8614C20.5535 14.8088 20.5706 14.7561 20.5873 14.7031C20.7529 14.1763 21.3143 13.8834 21.8412 14.0491ZM2.15881 14.0491C2.68566 13.8835 3.24706 14.1763 3.41272 14.7031C3.42937 14.7561 3.44651 14.8088 3.46411 14.8614C3.63957 15.3851 3.35729 15.9518 2.83362 16.1273C2.30995 16.3027 1.74319 16.0205 1.56773 15.4968C1.54618 15.4325 1.5252 15.3679 1.50481 15.303C1.33915 14.7762 1.63195 14.2148 2.15881 14.0491ZM3.27421 16.9893C3.72373 16.6684 4.34824 16.7727 4.6691 17.2223C4.70132 17.2674 4.73395 17.3122 4.76698 17.3568C5.09607 17.8003 5.00329 18.4266 4.55975 18.7557C4.11622 19.0848 3.48989 18.992 3.1608 18.5485C3.12046 18.4941 3.08061 18.4393 3.04125 18.3842C2.72039 17.9347 2.82469 17.3102 3.27421 16.9893ZM20.7258 16.9893C21.1753 17.3102 21.2796 17.9347 20.9587 18.3842C20.9194 18.4393 20.8795 18.4941 20.8392 18.5485C20.5101 18.992 19.8838 19.0848 19.4402 18.7557C18.9967 18.4266 18.9039 17.8003 19.233 17.3568C19.266 17.3122 19.2987 17.2674 19.3309 17.2223C19.6518 16.7727 20.2763 16.6684 20.7258 16.9893ZM5.24429 19.4402C5.57338 18.9967 6.19971 18.9039 6.64324 19.233C6.68776 19.266 6.73259 19.2987 6.77773 19.3309C7.22725 19.6518 7.33155 20.2763 7.01069 20.7258C6.68983 21.1753 6.06532 21.2796 5.6158 20.9587C5.56066 20.9194 5.5059 20.8795 5.45153 20.8392C5.00799 20.5101 4.91521 19.8838 5.24429 19.4402ZM18.7557 19.4402C19.0848 19.8838 18.992 20.5101 18.5485 20.8392C18.4941 20.8795 18.4393 20.9194 18.3842 20.9587C17.9347 21.2796 17.3102 21.1753 16.9893 20.7258C16.6684 20.2763 16.7727 19.6518 17.2223 19.3309C17.2674 19.2987 17.3122 19.266 17.3568 19.233C17.8003 18.9039 18.4266 18.9967 18.7557 19.4402ZM16.1273 21.1664C16.3027 21.6901 16.0205 22.2568 15.4968 22.4323C15.4325 22.4538 15.3679 22.4748 15.303 22.4952C14.7762 22.6608 14.2148 22.368 14.0491 21.8412C13.8835 21.3143 14.1763 20.7529 14.7031 20.5873C14.7561 20.5706 14.8088 20.5535 14.8614 20.5359C15.3851 20.3604 15.9518 20.6427 16.1273 21.1664ZM7.87273 21.1664C8.04819 20.6427 8.61495 20.3604 9.13862 20.5359C9.19116 20.5535 9.24392 20.5706 9.29689 20.5873C9.82375 20.7529 10.1166 21.3143 9.95089 21.8412C9.78522 22.368 9.22383 22.6608 8.69698 22.4952C8.63213 22.4748 8.56754 22.4538 8.50322 22.4323C7.97955 22.2568 7.69727 21.6901 7.87273 21.1664ZM10.9072 21.9905C10.9122 21.4382 11.364 20.9946 11.9163 20.9996C11.9441 20.9999 11.9721 21 12 21C12.0279 21 12.0559 20.9999 12.0837 20.9996C12.636 20.9946 13.0878 21.4382 13.0928 21.9905C13.0978 22.5427 12.6542 22.9945 12.1019 22.9995C12.068 22.9998 12.034 23 12 23C11.966 23 11.932 22.9998 11.8981 22.9995C11.3458 22.9945 10.9022 22.5427 10.9072 21.9905Z" fill="#222222"/>
<path fill-rule="evenodd" clip-rule="evenodd" d="M6.64508 2.39142C8.28235 1.47896 10.1256 1 12 1V3C10.4664 3 8.95829 3.39187 7.6187 4.13843C6.27911 4.885 5.15251 5.96148 4.34581 7.26573C3.5391 8.56998 3.07905 10.0587 3.00931 11.5907C2.93957 13.1227 3.26246 14.6471 3.94733 16.0193C4.6322 17.3914 5.65634 18.5658 6.92256 19.431C8.18878 20.2962 9.65507 20.8234 11.1823 20.9628C12.7095 21.1021 14.247 20.8489 15.6489 20.2271C17.0508 19.6054 18.2705 18.6357 19.1924 17.4101L20.7907 18.6124C19.664 20.1103 18.1732 21.2954 16.4598 22.0554C14.7464 22.8153 12.8672 23.1248 11.0006 22.9545C9.13398 22.7842 7.34184 22.1398 5.79424 21.0823C4.24664 20.0249 2.99491 18.5895 2.15785 16.9124C1.32078 15.2354 0.926145 13.3722 1.01138 11.4998C1.09662 9.62735 1.6589 7.80776 2.64488 6.21367C3.63085 4.61958 5.00781 3.30388 6.64508 2.39142Z" fill="#222222"/>
</svg>
