<svg width="24" height="24" viewBox="0 0 24 24" fill="none" xmlns="http://www.w3.org/2000/svg">
<g clip-path="url(#clip0_68_22)">
<path fill-rule="evenodd" clip-rule="evenodd" d="M20.8787 11.2929L12.7071 3.12132C12.3166 2.7308 11.6834 2.7308 11.2929 3.12132L3.12132 11.2929C2.7308 11.6834 2.7308 12.3166 3.12132 12.7071L11.2929 20.8787C11.6834 21.2692 12.3166 21.2692 12.7071 20.8787L20.8787 12.7071C21.2692 12.3166 21.2692 11.6834 20.8787 11.2929ZM14.1213 1.70711L22.2929 9.87868C23.4645 11.0503 23.4645 12.9497 22.2929 14.1213L14.1213 22.2929C12.9497 23.4645 11.0503 23.4645 9.87868 22.2929L1.70711 14.1213C0.535535 12.9497 0.535534 11.0503 1.70711 9.87868L9.87868 1.70711C11.0503 0.535535 12.9497 0.535532 14.1213 1.70711Z" fill="#222222"/>
<path fill-rule="evenodd" clip-rule="evenodd" d="M11 16C11 15.4477 11.4477 15 12 15H12.01C12.5623 15 13.01 15.4477 13.01 16C13.01 16.5523 12.5623 17 12.01 17H12C11.4477 17 11 16.5523 11 16Z" fill="#222222"/>
<path fill-rule="evenodd" clip-rule="evenodd" d="M12 7C12.5523 7 13 7.44772 13 8V13C13 13.5523 12.5523 14 12 14C11.4477 14 11 13.5523 11 13V8C11 7.44772 11.4477 7 12 7Z" fill="#222222"/>
</g>
<defs>
<clipPath id="clip0_68_22">
<rect width="24" height="24" fill="white"/>
</clipPath>
</defs>
</svg>
