<svg width="24" height="24" viewBox="0 0 24 24" fill="none" xmlns="http://www.w3.org/2000/svg">
<path d="M11.9728 2.74951L11.9858 2.74998L11.9988 2.75C14.3778 2.75367 16.6579 3.70224 18.3375 5.38704C20.0171 7.07184 20.9587 9.35485 20.955 11.7338C20.9513 14.1128 20.0028 16.3929 18.318 18.0725C16.6332 19.7521 14.3501 20.6937 11.9712 20.69L11.9677 20.69C11.0651 20.6928 10.1661 20.5763 9.29411 20.3436C8.96354 20.2296 8.60298 20.2345 8.275 20.3584L8.25774 20.3649L8.24083 20.3723L6.24305 21.2413C6.24288 21.2414 6.24271 21.2414 6.24255 21.2415C6.23375 21.2452 6.2242 21.2468 6.21468 21.246C6.20498 21.2453 6.19561 21.2422 6.18737 21.237C6.17913 21.2318 6.17228 21.2247 6.1674 21.2163C6.16364 21.2098 6.16114 21.2027 6.16 21.1954V19.44V19.4192L6.15885 19.3985C6.14747 19.1933 6.09568 18.9924 6.00644 18.8073C5.91761 18.6231 5.79342 18.4581 5.64094 18.3218C4.71727 17.4884 3.98171 16.4678 3.48322 15.328C2.98448 14.1875 2.7345 12.9539 2.74994 11.7093L2.75007 11.7093L2.74999 11.6956C2.74298 10.4953 2.97884 9.30599 3.44338 8.19921C3.90793 7.09242 4.59156 6.09104 5.45314 5.2553C6.31472 4.41956 7.33646 3.76674 8.45688 3.33612C9.5773 2.90549 10.7732 2.70595 11.9728 2.74951Z" stroke="black" stroke-width="1.5"/>
<path d="M18 9.46L15.07 14.12C14.9595 14.2954 14.8138 14.4461 14.6422 14.5624C14.4705 14.6787 14.2766 14.7581 14.0727 14.7957C13.8688 14.8333 13.6593 14.8282 13.4575 14.7808C13.2556 14.7333 13.0658 14.6445 12.9 14.52L10.56 12.77C10.4561 12.6921 10.3298 12.65 10.2 12.65C10.0702 12.65 9.94386 12.6921 9.84 12.77L6.68 15.17C6.592 15.2379 6.48279 15.2724 6.37176 15.2673C6.26073 15.2623 6.15508 15.2181 6.07355 15.1426C5.99202 15.0671 5.9399 14.9651 5.92644 14.8548C5.91297 14.7444 5.93904 14.6329 6 14.54L8.93 9.88C9.04051 9.70456 9.18619 9.55393 9.35784 9.43762C9.5295 9.32131 9.7234 9.24186 9.92731 9.20427C10.1312 9.16669 10.3407 9.17178 10.5426 9.21924C10.7444 9.2667 10.9342 9.35549 11.1 9.48L13.44 11.23C13.5439 11.3079 13.6702 11.35 13.8 11.35C13.9298 11.35 14.0561 11.3079 14.16 11.23L17.32 8.83C17.408 8.76213 17.5172 8.72764 17.6282 8.73266C17.7393 8.73767 17.8449 8.78187 17.9265 8.8574C18.008 8.93294 18.0601 9.03492 18.0736 9.14524C18.087 9.25556 18.061 9.36708 18 9.46Z" fill="black"/>
</svg>
