<svg width="24" height="24" viewBox="0 0 24 24" fill="none" xmlns="http://www.w3.org/2000/svg">
<path d="M16.512 13.9816C16.265 13.8576 15.047 13.2576 14.82 13.1756C14.593 13.0926 14.428 13.0516 14.263 13.2996C14.098 13.5466 13.623 14.1056 13.478 14.2706C13.334 14.4356 13.189 14.4556 12.942 14.3316C12.2121 14.041 11.5383 13.6255 10.951 13.1036C10.4093 12.6029 9.94493 12.0246 9.573 11.3876C9.429 11.1396 9.558 11.0056 9.682 10.8826C9.793 10.7716 9.93 10.5936 10.053 10.4486C10.1549 10.3234 10.2384 10.1844 10.301 10.0356C10.334 9.96727 10.3493 9.89176 10.3456 9.81596C10.342 9.74016 10.3194 9.66649 10.28 9.60163C10.218 9.47763 9.723 8.25863 9.517 7.76263C9.316 7.28063 9.112 7.34563 8.959 7.33763C8.815 7.33063 8.65 7.32863 8.485 7.32863C8.35949 7.33213 8.23605 7.36157 8.12247 7.41509C8.00888 7.46861 7.9076 7.54506 7.825 7.63963C7.54502 7.90476 7.32334 8.22531 7.17407 8.58084C7.0248 8.93637 6.95121 9.31909 6.958 9.70463C7.0383 10.6389 7.38968 11.5293 7.969 12.2666C9.03092 13.8587 10.4886 15.1472 12.199 16.0056C12.6604 16.2038 13.1317 16.3781 13.611 16.5276C14.1163 16.681 14.6505 16.7143 15.171 16.6246C15.5157 16.5548 15.8422 16.4142 16.1298 16.2118C16.4174 16.0094 16.6599 15.7495 16.842 15.4486C17.0044 15.0786 17.0545 14.6689 16.986 14.2706C16.925 14.1666 16.76 14.1056 16.512 13.9816V13.9816ZM19.004 4.90263C17.3039 3.20298 15.0442 2.17904 12.6454 2.02143C10.2466 1.86383 7.8723 2.5833 5.96448 4.04591C4.05667 5.50851 2.74536 7.61457 2.27469 9.972C1.80403 12.3294 2.20608 14.7776 3.406 16.8606L2 21.9956L7.254 20.6186C8.70716 21.4099 10.3354 21.8245 11.99 21.8246H11.994C13.9541 21.8236 15.8699 21.2417 17.4994 20.1523C19.1289 19.063 20.399 17.5151 21.1491 15.7042C21.8993 13.8933 22.0959 11.9008 21.7141 9.97821C21.3323 8.05566 20.3892 6.28941 19.004 4.90262V4.90263ZM16.371 18.8916C15.0591 19.7139 13.5423 20.1502 11.994 20.1506H11.99C10.5149 20.1505 9.06699 19.7537 7.798 19.0016L7.497 18.8236L4.379 19.6416L5.211 16.6016L5.016 16.2896C4.15055 14.9095 3.71378 13.3037 3.76094 11.6753C3.80809 10.0469 4.33705 8.46906 5.28092 7.1413C6.22479 5.81354 7.54119 4.79547 9.06365 4.21584C10.5861 3.63622 12.2463 3.52106 13.8342 3.88492C15.4221 4.24879 16.8664 5.07535 17.9846 6.26008C19.1027 7.4448 19.8445 8.93449 20.116 10.5408C20.3876 12.147 20.1767 13.7978 19.5101 15.2842C18.8435 16.7706 17.7511 18.026 16.371 18.8916" fill="black"/>
</svg>
