<svg xmlns="http://www.w3.org/2000/svg" viewBox="0 0 96.38 96.38"><defs><style>.cls-1{fill:#448aff;}</style></defs><title>My Favorite List</title><g id="Layer_2" data-name="Layer 2"><g id="Layer_1-2" data-name="Layer 1"><path class="cls-1" d="M48.17,96.38A48.19,48.19,0,1,1,96.38,48.22,48.12,48.12,0,0,1,48.17,96.38Zm0-61.31a22.13,22.13,0,0,0-1-2.12,15.13,15.13,0,0,0-10.83-7.18,11.56,11.56,0,0,0-11.79,4.6,18.79,18.79,0,0,0-3.33,16.75,29.38,29.38,0,0,0,4.89,9.78,65.7,65.7,0,0,0,12,12.36c3.23,2.63,6.53,5.18,9.81,7.75a.67.67,0,0,0,.6,0c.48-.3.91-.68,1.36-1A124.13,124.13,0,0,0,62.46,65.76,52.05,52.05,0,0,0,73,52.59a22.78,22.78,0,0,0,2.89-10,18.58,18.58,0,0,0-3.95-12.1,11.67,11.67,0,0,0-10.14-4.88,15.59,15.59,0,0,0-9.89,4A11.63,11.63,0,0,0,48.22,35.07Z"/></g></g></svg>