<svg xmlns="http://www.w3.org/2000/svg" viewBox="0 0 28.35 28.35"><defs><style>.cls-1{fill:#e65a42;}.cls-2{fill:#1d1d1b;}.cls-3{fill:#f2f2f2;}</style></defs><title>My Favorites</title><g id="Layer_2" data-name="Layer 2"><g id="Layer_1-2" data-name="Layer 1"><path class="cls-1" d="M14.17,28A13.79,13.79,0,1,1,28,14.18,13.77,13.77,0,0,1,14.17,28Zm0-17.54a5,5,0,0,0-.3-.61,4.31,4.31,0,0,0-3.09-2.05A3.29,3.29,0,0,0,7.41,9.08a5.41,5.41,0,0,0-1,4.79,8.42,8.42,0,0,0,1.4,2.79,18.85,18.85,0,0,0,3.43,3.54c.93.75,1.87,1.48,2.81,2.22a.2.2,0,0,0,.17,0c.14-.09.26-.2.39-.29a36,36,0,0,0,3.59-2.92,14.84,14.84,0,0,0,3-3.77,6.47,6.47,0,0,0,.82-2.84A5.3,5.3,0,0,0,21,9.12a3.36,3.36,0,0,0-2.91-1.39,4.43,4.43,0,0,0-2.82,1.14A3.31,3.31,0,0,0,14.18,10.42Z"/><path class="cls-2" d="M14.17,28.35h0A14.18,14.18,0,1,1,14.19,0h.05a14.18,14.18,0,0,1-.07,28.35Zm0-27.57a13.4,13.4,0,0,0-9.5,22.86,13.29,13.29,0,0,0,9.48,3.93h0A13.4,13.4,0,0,0,14.23.78Zm0,22a.5.5,0,0,1-.31-.1l-.55-.43c-.74-.58-1.51-1.18-2.26-1.79a19,19,0,0,1-3.51-3.61A8.5,8.5,0,0,1,6.09,14a5.72,5.72,0,0,1,1-5.12,3.68,3.68,0,0,1,3.75-1.46,4.7,4.7,0,0,1,3.31,2.14A4.17,4.17,0,0,1,15,8.58,4.84,4.84,0,0,1,18,7.34a3.76,3.76,0,0,1,3.23,1.55,5.68,5.68,0,0,1,1.2,3.71,6.72,6.72,0,0,1-.87,3,15.19,15.19,0,0,1-3.08,3.87,37.24,37.24,0,0,1-3.63,2.95l-.13.1a2.69,2.69,0,0,1-.27.2A.57.57,0,0,1,14.17,22.82Zm.17-.71Zm-4.24-14A2.87,2.87,0,0,0,7.72,9.31a5,5,0,0,0-.88,4.46,8.11,8.11,0,0,0,1.33,2.67,18.72,18.72,0,0,0,3.37,3.46c.74.6,1.51,1.2,2.25,1.78l.4.31.09-.07.15-.12A34.71,34.71,0,0,0,18,18.92a14.24,14.24,0,0,0,2.93-3.67,6.1,6.1,0,0,0,.79-2.68,5,5,0,0,0-1.05-3.21,3,3,0,0,0-2.58-1.24,4.06,4.06,0,0,0-2.59,1.05,2.93,2.93,0,0,0-.93,1.37l-.29.93-.43-.88-.1-.22a1.9,1.9,0,0,0-.18-.35,4,4,0,0,0-2.83-1.88A4.44,4.44,0,0,0,10.1,8.09Z"/><path class="cls-3" d="M14.18,10.42a3.31,3.31,0,0,1,1.05-1.55,4.43,4.43,0,0,1,2.82-1.14A3.36,3.36,0,0,1,21,9.12a5.3,5.3,0,0,1,1.12,3.47,6.47,6.47,0,0,1-.82,2.84,14.84,14.84,0,0,1-3,3.77,36,36,0,0,1-3.59,2.92c-.13.09-.25.2-.39.29a.2.2,0,0,1-.17,0c-.94-.74-1.88-1.47-2.81-2.22a18.85,18.85,0,0,1-3.43-3.54,8.42,8.42,0,0,1-1.4-2.79,5.41,5.41,0,0,1,1-4.79,3.29,3.29,0,0,1,3.38-1.32,4.31,4.31,0,0,1,3.09,2.05A5,5,0,0,1,14.18,10.42Z"/><path class="cls-2" d="M14.17,22.82a.5.5,0,0,1-.31-.1l-.55-.43c-.74-.58-1.51-1.18-2.26-1.79a19,19,0,0,1-3.51-3.61A8.5,8.5,0,0,1,6.09,14a5.72,5.72,0,0,1,1-5.12,3.68,3.68,0,0,1,3.75-1.46,4.7,4.7,0,0,1,3.31,2.14A4.17,4.17,0,0,1,15,8.58,4.84,4.84,0,0,1,18,7.34a3.76,3.76,0,0,1,3.23,1.55,5.68,5.68,0,0,1,1.2,3.71,6.72,6.72,0,0,1-.87,3,15.19,15.19,0,0,1-3.08,3.87,37.24,37.24,0,0,1-3.63,2.95l-.13.1a2.69,2.69,0,0,1-.27.2A.57.57,0,0,1,14.17,22.82Zm.17-.71Zm-4.24-14A2.87,2.87,0,0,0,7.72,9.31a5,5,0,0,0-.88,4.46,8.11,8.11,0,0,0,1.33,2.67,18.72,18.72,0,0,0,3.37,3.46c.74.6,1.51,1.2,2.25,1.78l.4.31.09-.07.15-.12A34.71,34.71,0,0,0,18,18.92a14.24,14.24,0,0,0,2.93-3.67,6.1,6.1,0,0,0,.79-2.68,5,5,0,0,0-1.05-3.21,3,3,0,0,0-2.58-1.24,4.06,4.06,0,0,0-2.59,1.05,2.93,2.93,0,0,0-.93,1.37l-.29.93-.43-.88-.1-.22a1.9,1.9,0,0,0-.18-.35,4,4,0,0,0-2.83-1.88A4.44,4.44,0,0,0,10.1,8.09Z"/></g></g></svg>