<svg xmlns="http://www.w3.org/2000/svg" viewBox="0 0 99.1 99.1"><defs><style>.cls-1{fill:#9b9b9b;}.cls-2{fill:#1d1d1b;}.cls-3{fill:#f2f2f2;}</style></defs><title>unlike</title><g id="Layer_2" data-name="Layer 2"><g id="Layer_1-2" data-name="Layer 1"><path class="cls-1" d="M49.53,97.74A48.19,48.19,0,1,1,97.74,49.58,48.12,48.12,0,0,1,49.53,97.74Zm0-61.31a22.13,22.13,0,0,0-1-2.12,15.13,15.13,0,0,0-10.83-7.18,11.56,11.56,0,0,0-11.79,4.6,18.79,18.79,0,0,0-3.33,16.75,29.38,29.38,0,0,0,4.89,9.78,65.7,65.7,0,0,0,12,12.36c3.23,2.63,6.53,5.18,9.81,7.75a.67.67,0,0,0,.6,0c.48-.3.91-.68,1.36-1A125.51,125.51,0,0,0,63.82,67.12,52.05,52.05,0,0,0,74.32,54a22.78,22.78,0,0,0,2.89-10,18.58,18.58,0,0,0-3.95-12.1A11.67,11.67,0,0,0,63.12,27a15.59,15.59,0,0,0-9.89,4A11.63,11.63,0,0,0,49.58,36.43Z"/><path class="cls-2" d="M49.55,99.1h0A49.47,49.47,0,0,1,0,49.47,49.49,49.49,0,0,1,49.6,0h.17a49.55,49.55,0,0,1-.22,99.1ZM49.6,2.72A46.86,46.86,0,0,0,16.39,82.66,46.49,46.49,0,0,0,49.54,96.38h0a46.83,46.83,0,0,0,.21-93.66Zm-.05,77.07a1.75,1.75,0,0,1-1.09-.35l-1.91-1.5c-2.61-2-5.31-4.14-7.92-6.27A66.68,66.68,0,0,1,26.37,59.06a30.67,30.67,0,0,1-5.09-10.24,20,20,0,0,1,3.55-17.9,12.87,12.87,0,0,1,13.1-5.13,16.45,16.45,0,0,1,11.58,7.5A13.65,13.65,0,0,1,52.34,30a17,17,0,0,1,10.73-4.33,13.14,13.14,0,0,1,11.28,5.41,20,20,0,0,1,4.22,13,23.88,23.88,0,0,1-3,10.54c-2.4,4.54-5.72,8.71-10.77,13.51A126.17,126.17,0,0,1,52.07,78.43l-.47.35c-.3.23-.61.48-1,.7A2,2,0,0,1,49.55,79.79Zm.58-2.5h0Zm-14.83-49A10,10,0,0,0,27,32.55a17.42,17.42,0,0,0-3.1,15.58,27.64,27.64,0,0,0,4.67,9.33,63.44,63.44,0,0,0,11.77,12.1c2.59,2.12,5.27,4.21,7.87,6.24l1.39,1.08.32-.24.53-.41A125.6,125.6,0,0,0,62.88,66.14c4.82-4.6,8-8.56,10.24-12.82A21.32,21.32,0,0,0,75.85,44a17.3,17.3,0,0,0-3.67-11.24,10.36,10.36,0,0,0-9-4.34,14.32,14.32,0,0,0-9,3.67,10.36,10.36,0,0,0-3.25,4.79l-1,3.26L48.35,37c-.13-.27-.24-.53-.36-.78a11.6,11.6,0,0,0-.6-1.22,13.87,13.87,0,0,0-9.9-6.55A14,14,0,0,0,35.3,28.29Z"/><path class="cls-3" d="M49.58,36.43A11.63,11.63,0,0,1,53.23,31a15.59,15.59,0,0,1,9.89-4A11.67,11.67,0,0,1,73.26,31.9,18.58,18.58,0,0,1,77.21,44a22.78,22.78,0,0,1-2.89,10,52.05,52.05,0,0,1-10.5,13.17A125.51,125.51,0,0,1,51.26,77.33c-.45.33-.88.71-1.36,1a.67.67,0,0,1-.6,0c-3.28-2.57-6.58-5.12-9.81-7.75a65.7,65.7,0,0,1-12-12.36,29.38,29.38,0,0,1-4.89-9.78,18.79,18.79,0,0,1,3.33-16.75,11.56,11.56,0,0,1,11.79-4.6,15.13,15.13,0,0,1,10.83,7.18A22.13,22.13,0,0,1,49.58,36.43Z"/><path class="cls-2" d="M49.55,79.79a1.75,1.75,0,0,1-1.09-.35l-1.91-1.5c-2.61-2-5.31-4.14-7.92-6.27A66.68,66.68,0,0,1,26.37,59.06a30.67,30.67,0,0,1-5.09-10.24,20,20,0,0,1,3.55-17.9,12.87,12.87,0,0,1,13.1-5.13,16.45,16.45,0,0,1,11.58,7.5A13.65,13.65,0,0,1,52.34,30a17,17,0,0,1,10.73-4.33,13.13,13.13,0,0,1,11.28,5.41,20,20,0,0,1,4.22,13,23.88,23.88,0,0,1-3,10.54c-2.4,4.54-5.72,8.71-10.77,13.51A126.17,126.17,0,0,1,52.07,78.43l-.47.35c-.3.23-.61.48-1,.7A2,2,0,0,1,49.55,79.79Zm.58-2.5h0Zm-14.83-49A10,10,0,0,0,27,32.55a17.42,17.42,0,0,0-3.1,15.58,27.64,27.64,0,0,0,4.67,9.33,63.44,63.44,0,0,0,11.77,12.1c2.59,2.12,5.27,4.21,7.87,6.24l1.39,1.08.32-.24.53-.41A125.6,125.6,0,0,0,62.88,66.14c4.82-4.6,8-8.56,10.24-12.82A21.32,21.32,0,0,0,75.85,44a17.3,17.3,0,0,0-3.67-11.24,10.36,10.36,0,0,0-9-4.34,14.32,14.32,0,0,0-9,3.67,10.36,10.36,0,0,0-3.25,4.79l-1,3.26L48.35,37c-.13-.27-.24-.53-.36-.78a11.6,11.6,0,0,0-.6-1.22,13.87,13.87,0,0,0-9.9-6.55A14,14,0,0,0,35.3,28.29Z"/></g></g></svg>