<svg xmlns="http://www.w3.org/2000/svg" viewBox="0 0 49.88 71.83">
<defs>
  <style>.cls-1{fill:#fff;stroke:#fff;stroke-miterlimit:10;stroke-width:0px;}</style>
</defs>
<title>Asset 6</title>
<g id="Layer_2" data-name="Layer 2">
  <g id="primary_logo" data-name="primary logo">
    <circle class="cls-1" cx="24.94" cy="46.89" r="4.12"/>
    <path class="cls-1" d="M39.11.25H10.77A10.53,10.53,0,0,0,.25,10.77V61.06A10.53,10.53,0,0,0,10.77,71.58H14a24.51,24.51,0,0,0,11-2.58,24.51,24.51,0,0,0,11,2.58h3.2A10.53,10.53,0,0,0,49.63,61.06V10.77A10.53,10.53,0,0,0,39.11.25ZM10.77,5.74H39.11a5,5,0,0,1,5,5v5.94H5.74V10.77A5,5,0,0,1,10.77,5.74ZM39.11,66.09h-3.2a19.22,19.22,0,0,1-19.2-19.2,8.23,8.23,0,1,1,16.46,0,19.13,19.13,0,0,1-6,13.93A16.35,16.35,0,0,0,32.64,63a24.61,24.61,0,0,0,6-16.13,13.72,13.72,0,1,0-27.44,0,24.6,24.6,0,0,0,8.25,18.39,18.91,18.91,0,0,1-5.5.81h-3.2a5,5,0,0,1-5-5V22.2h38.4V61.06A5,5,0,0,1,39.11,66.09Z"/>
    <path class="cls-1" d="M27.68,14H22.2a2.76,2.76,0,0,1-2.75-2.75h0A2.75,2.75,0,0,1,22.2,8.48h5.48a2.75,2.75,0,0,1,2.75,2.74h0A2.76,2.76,0,0,1,27.68,14Z"/>
  </g>
</g>
</svg>