<?xml version="1.0" standalone="no"?>
<!DOCTYPE svg PUBLIC "-//W3C//DTD SVG 20010904//EN"
 "http://www.w3.org/TR/2001/REC-SVG-20010904/DTD/svg10.dtd">
<svg version="1.0" xmlns="http://www.w3.org/2000/svg"
 width="1024.000000pt" height="1024.000000pt" viewBox="0 0 1024.000000 1024.000000"
 preserveAspectRatio="xMidYMid meet">
<metadata>
Created by potrace 1.14, written by Peter Selinger 2001-2017
</metadata>
<g transform="translate(0.000000,1024.000000) scale(0.100000,-0.100000)"
fill="#000000" stroke="none">
<path d="M0 5120 l0 -5120 5120 0 5120 0 0 5120 0 5120 -5120 0 -5120 0 0
-5120z m4240 2485 l880 -756 880 756 879 755 121 0 120 0 0 -1450 0 -1450
-120 0 -120 0 -2 1256 -3 1255 -827 -705 -828 -706 -100 0 -100 0 -828 706
-827 705 -3 -1255 -2 -1256 -120 0 -120 0 0 1450 0 1450 120 0 121 0 879 -755z
m-880 -3500 l0 -675 1760 0 1760 0 0 675 0 675 120 0 120 0 0 -1450 0 -1450
-120 0 -120 0 0 675 0 675 -1760 0 -1760 0 0 -675 0 -675 -120 0 -120 0 0
1450 0 1450 120 0 120 0 0 -675z"/>
</g>
</svg>
