<svg xmlns="http://www.w3.org/2000/svg" viewBox="0 0 999 2115"><defs><style>.cls-1{fill:#fdfdfd;}.cls-2{fill:#f5ba09;}.cls-3{fill:#fefefe;}.cls-4{fill:#f6ba09;}.cls-5{fill:#f8ca31;}</style></defs><title>Asset 1</title><g id="Layer_2" data-name="Layer 2"><g id="Layer_1-2" data-name="Layer 1"><path class="cls-1" d="M423,.12Q708.71.12,994.39,0c3.75,0,4.6.85,4.6,4.6q-.16,265.71-.1,531.44c-.81.85-.95,2.07-1.62,3q-25.62,32.28-51.55,64.32c-13.08,16.2-26,32.52-39.08,48.72Q844.69,728.92,783,805.91,744.35,854,705.66,902.08,643.79,979,582,1055.89q-40.68,50.63-81.38,101.25-59.82,74.34-119.58,148.73-40.65,50.64-81.38,101.24Q237.8,1484,176,1560.92q-38.47,47.91-77,95.77c-31.5,39-62.71,78.24-94.34,117.12-1.17,1.45-1.95,3.69-4.56,3.11V531.06c3.58-7.45,9.46-13.22,14.52-19.56q74.16-93,148.26-185.95,64.37-80.62,128.66-161.32c42.3-53.17,84.85-106.14,127-159.47A34.2,34.2,0,0,1,423,.12Z"/><path class="cls-2" d="M.11,1776.92c8.68-9,16-19.1,23.75-28.79q97.77-121.43,195.38-243,78.42-97.54,156.8-195.1,104.08-129.48,208.19-258.93Q662.64,953.61,741,856,843.23,728.92,945.48,601.81q25.66-31.9,51.4-63.76c.77-.07,1.34.25,1.42,1a42.19,42.19,0,0,1,.08,4.5v853c.46,3.11-1.23,5.33-3,7.6-24.17,30.57-48.65,60.9-72.89,91.41q-67.59,85.08-135.47,170-56.82,71.3-113.72,142.55-67.21,84.4-134.49,168.78Q485.26,2044,431.63,2111.17a16.46,16.46,0,0,1-4.61,3.72q-211.32,0-422.64.09c-3.52,0-4.38-.63-4.38-4.31Q.2,1943.8.11,1776.92Z"/><path class="cls-3" d="M427,2114.89q90.8-113.86,181.6-227.73,68.05-85.34,136.16-170.65,79.11-99.21,158.2-198.46,46.71-58.59,93.43-117.19c.51-.64,1-1.35,1.43-2a.62.62,0,0,1,1,.12q0,355.57.11,711.15c0,4-.71,4.89-4.83,4.89Q710.6,2114.8,427,2114.89Z"/><path class="cls-4" d="M423,.12c-4.67,8.27-11.24,15.11-17.09,22.46Q294.58,162.44,183.08,302.17,92.33,416,1.58,529.78a10.63,10.63,0,0,1-1.47,1.28Q.11,268,0,4.89C0,.9.71,0,4.83,0Q213.92.21,423,.12Z"/><path class="cls-5" d="M998.89,1399l-1-.12c0-2,0-4,0-6q0-424.33,0-848.67c0-2,1-4.35-1-6.12a3,3,0,0,1,2-2Z"/></g></g></svg>