<svg width="24" height="24" viewBox="0 0 24 24" fill="none" xmlns="http://www.w3.org/2000/svg">
<path d="M22 9.81818C22 17.4545 12 24 12 24C12 24 2 17.4545 2 9.81818C2 7.21424 3.05357 4.71695 4.92893 2.87568C6.8043 1.03441 9.34784 0 12 0C14.6522 0 17.1957 1.03441 19.0711 2.87568C20.9464 4.71695 22 7.21424 22 9.81818Z" fill="#E74C3C"/>
<path d="M21.5 9.81818C21.5 13.4319 19.1211 16.8545 16.6402 19.4255C15.4106 20.6999 14.1792 21.7412 13.2545 22.4641C12.7926 22.8252 12.4083 23.106 12.1405 23.296C12.0893 23.3323 12.0424 23.3652 12 23.3948C11.9576 23.3652 11.9107 23.3323 11.8595 23.296C11.5917 23.106 11.2074 22.8252 10.7455 22.4641C9.82085 21.7412 8.58945 20.6999 7.35981 19.4255C4.87894 16.8545 2.5 13.4319 2.5 9.81818C2.5 7.34984 3.49862 4.98069 5.27923 3.23246C7.06015 1.48392 9.47751 0.5 12 0.5C14.5225 0.5 16.9399 1.48392 18.7208 3.23246C20.5014 4.9807 21.5 7.34984 21.5 9.81818Z" stroke="black" stroke-opacity="0.3" stroke-linecap="round" stroke-linejoin="round"/>
<path d="M12 14C14.2091 14 16 12.2091 16 10C16 7.79086 14.2091 6 12 6C9.79086 6 8 7.79086 8 10C8 12.2091 9.79086 14 12 14Z" fill="black" fill-opacity="0.3"/>
</svg>
