<svg width="24" height="24" viewBox="0 0 24 24" fill="none" xmlns="http://www.w3.org/2000/svg">
<path d="M19.669 3.00013H4.33099C4.15857 2.99775 3.98738 3.02915 3.82717 3.09254C3.66697 3.15593 3.5209 3.25007 3.3973 3.36959C3.2737 3.4891 3.175 3.63164 3.10683 3.78907C3.03866 3.94651 3.00236 4.11575 3 4.28713V19.7131C3.00236 19.8845 3.03866 20.0537 3.10683 20.2112C3.175 20.3686 3.2737 20.5112 3.3973 20.6307C3.5209 20.7502 3.66697 20.8443 3.82717 20.9077C3.98738 20.9711 4.15857 21.0025 4.33099 21.0001H19.669C19.8414 21.0025 20.0126 20.9711 20.1728 20.9077C20.333 20.8443 20.4791 20.7502 20.6027 20.6307C20.7263 20.5112 20.825 20.3686 20.8932 20.2112C20.9613 20.0537 20.9976 19.8845 21 19.7131V4.28713C20.9976 4.11575 20.9613 3.94651 20.8932 3.78907C20.825 3.63164 20.7263 3.4891 20.6027 3.36959C20.4791 3.25007 20.333 3.15593 20.1728 3.09254C20.0126 3.02915 19.8414 2.99775 19.669 3.00013ZM8.45976 18.0661H5.74346V9.96613H8.45976V18.0661ZM7.10161 8.83213C6.727 8.83213 6.36773 8.6842 6.10284 8.4209C5.83795 8.1576 5.68913 7.80049 5.68913 7.42813C5.68913 7.05576 5.83795 6.69865 6.10284 6.43535C6.36773 6.17205 6.727 6.02413 7.10161 6.02413C7.30053 6.0017 7.50197 6.02129 7.69274 6.08162C7.88352 6.14195 8.05932 6.24165 8.20864 6.37419C8.35796 6.50674 8.47744 6.66914 8.55924 6.85076C8.64104 7.03238 8.68333 7.22913 8.68333 7.42813C8.68333 7.62712 8.64104 7.82387 8.55924 8.00549C8.47744 8.18711 8.35796 8.34952 8.20864 8.48206C8.05932 8.6146 7.88352 8.7143 7.69274 8.77463C7.50197 8.83496 7.30053 8.85455 7.10161 8.83213ZM18.2565 18.0661H15.5402V13.7191C15.5402 12.6301 15.1509 11.9191 14.164 11.9191C13.8585 11.9213 13.5611 12.0166 13.3118 12.192C13.0625 12.3674 12.8733 12.6145 12.7696 12.9001C12.6988 13.1117 12.6681 13.3344 12.6791 13.5571V18.0571H9.96278C9.96278 18.0571 9.96278 10.6951 9.96278 9.95713H12.6791V11.1001C12.9258 10.6745 13.2847 10.3239 13.7171 10.086C14.1495 9.84812 14.6389 9.73199 15.1328 9.75013C16.9437 9.75013 18.2565 10.9111 18.2565 13.4041V18.0661Z" fill="white"/>
</svg>
