<svg width="32" height="32" viewBox="0 0 32 32" fill="none" xmlns="http://www.w3.org/2000/svg">
<g clip-path="url(#clip0_23_227)">
<path d="M7 5H25L27 7V25L25 27H7L5 25V7L7 5Z" fill="#992E2E"/>
<path d="M7 4H15L16 3.5L17 4H25V28H17L16 28.5L15 28H7V4Z" fill="#992E2E"/>
<path d="M28 7L28 15L28.5 16L28 17L28 25L4 25L4 17L3.5 16L4 15L4 7L28 7Z" fill="#992E2E"/>
<path d="M11.6949 9.73742C11.5995 9.73742 11.5517 9.78993 11.5517 9.89497V10.7812C11.5517 10.8862 11.5995 10.9387 11.6949 10.9387H14.7311C14.8862 10.9387 15.0175 10.9978 15.1249 11.116C15.2323 11.2341 15.286 11.3786 15.286 11.5492C15.286 11.7199 15.2323 11.8643 15.1249 11.9825C15.0175 12.1007 14.8862 12.1597 14.7311 12.1597H6.86888C6.71376 12.1597 6.58251 12.1007 6.47512 11.9825C6.36773 11.8643 6.31403 11.7199 6.31403 11.5492C6.31403 11.3786 6.36773 11.2341 6.47512 11.116C6.58251 10.9978 6.71376 10.9387 6.86888 10.9387H9.90508C10.0005 10.9387 10.0483 10.8862 10.0483 10.7812V9.89497C10.0483 9.78993 10.0005 9.73742 9.90508 9.73742H6.75173C6.59661 9.73742 6.45939 9.67834 6.34007 9.56017C6.23268 9.42888 6.17898 9.27133 6.17898 9.08753C6.17898 8.91685 6.23268 8.77243 6.34007 8.65427C6.44746 8.52298 6.58468 8.45733 6.75173 8.45733H9.90508C10.0005 8.45733 10.0483 8.39825 10.0483 8.28009V7.82713C10.0483 7.60394 10.1199 7.41357 10.2631 7.25602C10.4182 7.08534 10.5972 7 10.8 7C11.0028 7 11.1759 7.08534 11.3191 7.25602C11.4742 7.41357 11.5517 7.60394 11.5517 7.82713V8.28009C11.5517 8.39825 11.5995 8.45733 11.6949 8.45733H14.8483C15.0153 8.45733 15.1525 8.52298 15.2599 8.65427C15.3673 8.77243 15.421 8.91685 15.421 9.08753C15.421 9.27133 15.3614 9.42888 15.242 9.56017C15.1346 9.67834 15.0034 9.73742 14.8483 9.73742H11.6949ZM6.59064 19.0919C6.43553 19.0919 6.29831 19.0263 6.17898 18.895C6.05966 18.7637 6 18.6061 6 18.4223C6 18.2516 6.05966 18.1007 6.17898 17.9694C6.29831 17.8381 6.43553 17.7724 6.59064 17.7724H8.86536C8.97275 17.7724 9.00258 17.7199 8.95485 17.6149C8.81166 17.2867 8.63864 16.9387 8.4358 16.5711C8.38807 16.4792 8.31051 16.4333 8.20312 16.4333H8.00624H7.55878C7.28434 16.4333 7.0457 16.3217 6.84285 16.0985C6.65193 15.8753 6.55647 15.6127 6.55647 15.3107V14.1094C6.55647 13.8074 6.65193 13.5449 6.84285 13.3217C7.0457 13.0985 7.28434 12.9869 7.55878 12.9869H14.0412C14.3157 12.9869 14.5483 13.0985 14.7393 13.3217C14.9421 13.5449 15.0435 13.8074 15.0435 14.1094V15.3107C15.0435 15.6127 14.9421 15.8753 14.7393 16.0985C14.5483 16.3217 14.3157 16.4333 14.0412 16.4333H13.4148C13.3074 16.4333 13.2358 16.4858 13.2 16.5908C12.9614 17.0635 12.7764 17.4114 12.6452 17.6346C12.6213 17.6608 12.6153 17.6937 12.6273 17.733C12.6511 17.7593 12.6809 17.7724 12.7167 17.7724H15.0094C15.1645 17.7724 15.3017 17.8381 15.421 17.9694C15.5403 18.1007 15.6 18.2516 15.6 18.4223C15.6 18.6061 15.5403 18.7637 15.421 18.895C15.3017 19.0263 15.1645 19.0919 15.0094 19.0919H6.59064ZM11.6607 16.5514C11.7085 16.4726 11.6786 16.4333 11.5713 16.4333H10.0824C10.0466 16.4333 10.0168 16.453 9.99295 16.4923C9.98102 16.5186 9.98698 16.5449 10.0108 16.5711C10.0705 16.6893 10.2316 17.0372 10.4941 17.6149C10.5299 17.7199 10.6015 17.7724 10.7089 17.7724H10.7837C10.8911 17.7724 10.9746 17.7265 11.0343 17.6346C11.1894 17.4114 11.3982 17.0503 11.6607 16.5514ZM8.16732 15.4092H13.4327C13.5401 15.4092 13.5938 15.3567 13.5938 15.2516V14.1685C13.5938 14.0503 13.5401 13.9912 13.4327 13.9912H8.16732C8.05993 13.9912 8.00624 14.0503 8.00624 14.1685V15.2516C8.00624 15.3567 8.05993 15.4092 8.16732 15.4092ZM6.95024 25H6.89654C6.6937 25 6.52068 24.9212 6.37749 24.7637C6.23431 24.6061 6.16271 24.4158 6.16271 24.1926V21.0219C6.16271 20.7199 6.26414 20.4639 6.46698 20.2538C6.66983 20.0306 6.90847 19.919 7.18292 19.919H14.4171C14.6915 19.919 14.9302 20.0306 15.133 20.2538C15.3359 20.4639 15.4373 20.7199 15.4373 21.0219V24.1926C15.4373 24.4158 15.3657 24.6061 15.2225 24.7637C15.0793 24.9212 14.9063 25 14.7035 25H14.6498C14.4588 25 14.2978 24.9278 14.1665 24.7834C14.0353 24.639 13.9696 24.4617 13.9696 24.2516C13.9696 24.1729 13.9398 24.1335 13.8801 24.1335H7.71986C7.6602 24.1335 7.63037 24.1729 7.63037 24.2516C7.63037 24.4617 7.56475 24.639 7.43349 24.7834C7.30224 24.9278 7.14115 25 6.95024 25ZM7.63037 21.337V22.7549C7.63037 22.8731 7.6781 22.9322 7.77356 22.9322H13.8264C13.9219 22.9322 13.9696 22.8731 13.9696 22.7549V21.337C13.9696 21.2188 13.9219 21.1597 13.8264 21.1597H7.77356C7.6781 21.1597 7.63037 21.2188 7.63037 21.337Z" fill="white"/>
<path d="M22.0949 9.73742C21.9995 9.73742 21.9517 9.78993 21.9517 9.89497V10.7812C21.9517 10.8862 21.9995 10.9387 22.0949 10.9387H25.1311C25.2862 10.9387 25.4175 10.9978 25.5249 11.116C25.6323 11.2341 25.686 11.3786 25.686 11.5492C25.686 11.7199 25.6323 11.8643 25.5249 11.9825C25.4175 12.1007 25.2862 12.1597 25.1311 12.1597H17.2689C17.1138 12.1597 16.9825 12.1007 16.8751 11.9825C16.7677 11.8643 16.714 11.7199 16.714 11.5492C16.714 11.3786 16.7677 11.2341 16.8751 11.116C16.9825 10.9978 17.1138 10.9387 17.2689 10.9387H20.3051C20.4005 10.9387 20.4483 10.8862 20.4483 10.7812V9.89497C20.4483 9.78993 20.4005 9.73742 20.3051 9.73742H17.1517C16.9966 9.73742 16.8594 9.67834 16.7401 9.56017C16.6327 9.42888 16.579 9.27133 16.579 9.08753C16.579 8.91685 16.6327 8.77243 16.7401 8.65427C16.8475 8.52298 16.9847 8.45733 17.1517 8.45733H20.3051C20.4005 8.45733 20.4483 8.39825 20.4483 8.28009V7.82713C20.4483 7.60394 20.5199 7.41357 20.663 7.25602C20.8182 7.08534 20.9971 7 21.2 7C21.4028 7 21.5759 7.08534 21.719 7.25602C21.8742 7.41357 21.9517 7.60394 21.9517 7.82713V8.28009C21.9517 8.39825 21.9995 8.45733 22.0949 8.45733H25.2483C25.4153 8.45733 25.5525 8.52298 25.6599 8.65427C25.7673 8.77243 25.821 8.91685 25.821 9.08753C25.821 9.27133 25.7613 9.42888 25.642 9.56017C25.5346 9.67834 25.4034 9.73742 25.2483 9.73742H22.0949ZM16.9906 19.0919C16.8355 19.0919 16.6983 19.0263 16.579 18.895C16.4597 18.7637 16.4 18.6061 16.4 18.4223C16.4 18.2516 16.4597 18.1007 16.579 17.9694C16.6983 17.8381 16.8355 17.7724 16.9906 17.7724H19.2654C19.3727 17.7724 19.4026 17.7199 19.3548 17.6149C19.2117 17.2867 19.0386 16.9387 18.8358 16.5711C18.7881 16.4792 18.7105 16.4333 18.6031 16.4333H18.4062H17.9588C17.6843 16.4333 17.4457 16.3217 17.2428 16.0985C17.0519 15.8753 16.9565 15.6127 16.9565 15.3107V14.1094C16.9565 13.8074 17.0519 13.5449 17.2428 13.3217C17.4457 13.0985 17.6843 12.9869 17.9588 12.9869H24.4412C24.7157 12.9869 24.9483 13.0985 25.1392 13.3217C25.3421 13.5449 25.4435 13.8074 25.4435 14.1094V15.3107C25.4435 15.6127 25.3421 15.8753 25.1392 16.0985C24.9483 16.3217 24.7157 16.4333 24.4412 16.4333H23.8148C23.7074 16.4333 23.6358 16.4858 23.6 16.5908C23.3614 17.0635 23.1764 17.4114 23.0451 17.6346C23.0213 17.6608 23.0153 17.6937 23.0272 17.733C23.0511 17.7593 23.0809 17.7724 23.1167 17.7724H25.4094C25.5645 17.7724 25.7017 17.8381 25.821 17.9694C25.9403 18.1007 26 18.2516 26 18.4223C26 18.6061 25.9403 18.7637 25.821 18.895C25.7017 19.0263 25.5645 19.0919 25.4094 19.0919H16.9906ZM22.0607 16.5514C22.1085 16.4726 22.0786 16.4333 21.9712 16.4333H20.4824C20.4466 16.4333 20.4168 16.453 20.3929 16.4923C20.381 16.5186 20.387 16.5449 20.4108 16.5711C20.4705 16.6893 20.6316 17.0372 20.8941 17.6149C20.9299 17.7199 21.0015 17.7724 21.1089 17.7724H21.1837C21.2911 17.7724 21.3746 17.7265 21.4343 17.6346C21.5894 17.4114 21.7982 17.0503 22.0607 16.5514ZM18.5673 15.4092H23.8327C23.9401 15.4092 23.9938 15.3567 23.9938 15.2516V14.1685C23.9938 14.0503 23.9401 13.9912 23.8327 13.9912H18.5673C18.4599 13.9912 18.4062 14.0503 18.4062 14.1685V15.2516C18.4062 15.3567 18.4599 15.4092 18.5673 15.4092ZM17.3502 25H17.2965C17.0937 25 16.9207 24.9212 16.7775 24.7637C16.6343 24.6061 16.5627 24.4158 16.5627 24.1926V21.0219C16.5627 20.7199 16.6641 20.4639 16.867 20.2538C17.0698 20.0306 17.3085 19.919 17.5829 19.919H24.8171C25.0915 19.919 25.3302 20.0306 25.533 20.2538C25.7359 20.4639 25.8373 20.7199 25.8373 21.0219V24.1926C25.8373 24.4158 25.7657 24.6061 25.6225 24.7637C25.4793 24.9212 25.3063 25 25.1035 25H25.0498C24.8588 25 24.6978 24.9278 24.5665 24.7834C24.4352 24.639 24.3696 24.4617 24.3696 24.2516C24.3696 24.1729 24.3398 24.1335 24.2801 24.1335H18.1199C18.0602 24.1335 18.0304 24.1729 18.0304 24.2516C18.0304 24.4617 17.9647 24.639 17.8335 24.7834C17.7022 24.9278 17.5411 25 17.3502 25ZM18.0304 21.337V22.7549C18.0304 22.8731 18.0781 22.9322 18.1736 22.9322H24.2264C24.3219 22.9322 24.3696 22.8731 24.3696 22.7549V21.337C24.3696 21.2188 24.3219 21.1597 24.2264 21.1597H18.1736C18.0781 21.1597 18.0304 21.2188 18.0304 21.337Z" fill="white"/>
<path d="M0.646447 6.64645C0.552678 6.74021 0.5 6.86739 0.5 7V16V25C0.5 25.1326 0.552678 25.2598 0.646447 25.3536L1.64645 26.3536C1.78945 26.4966 2.0045 26.5393 2.19134 26.4619C2.37818 26.3846 2.5 26.2022 2.5 26V18C2.5 17.9224 2.48193 17.8458 2.44721 17.7764L1.55902 16L2.44721 14.2236C2.48193 14.1542 2.5 14.0776 2.5 14V6C2.5 5.79777 2.37818 5.61545 2.19134 5.53806C2.0045 5.46067 1.78945 5.50345 1.64645 5.64645L0.646447 6.64645Z" stroke="#992E2E" stroke-linejoin="round"/>
<path d="M5.64645 1.64645C5.50345 1.78945 5.46067 2.0045 5.53806 2.19134C5.61545 2.37818 5.79777 2.5 6 2.5L14 2.5C14.0776 2.5 14.1542 2.48193 14.2236 2.44721L16 1.55902L17.7764 2.44721C17.8458 2.48193 17.9224 2.5 18 2.5L26 2.5C26.2022 2.5 26.3846 2.37818 26.4619 2.19134C26.5393 2.0045 26.4966 1.78944 26.3536 1.64645L25.3536 0.646446C25.2598 0.552678 25.1326 0.499999 25 0.499999L16 0.5L7 0.5C6.86739 0.5 6.74021 0.552678 6.64645 0.646447L5.64645 1.64645Z" stroke="#992E2E" stroke-linejoin="round"/>
<path d="M6.64645 31.3536C6.74021 31.4473 6.86739 31.5 7 31.5L25 31.5C25.1326 31.5 25.2598 31.4473 25.3536 31.3536L26.3536 30.3536C26.4966 30.2106 26.5393 29.9955 26.4619 29.8087C26.3846 29.6218 26.2022 29.5 26 29.5L18 29.5C17.9224 29.5 17.8458 29.5181 17.7764 29.5528L16 30.441L14.2236 29.5528C14.1542 29.5181 14.0776 29.5 14 29.5L6 29.5C5.79777 29.5 5.61545 29.6218 5.53806 29.8087C5.46067 29.9955 5.50345 30.2106 5.64645 30.3536L6.64645 31.3536Z" stroke="#992E2E" stroke-linejoin="round"/>
<path d="M4 2.5C3.86739 2.5 3.74021 2.55268 3.64645 2.64645L2.64645 3.64645C2.55268 3.74021 2.5 3.86739 2.5 4V5C2.5 5.27614 2.72386 5.5 3 5.5H4C4.13261 5.5 4.25979 5.44732 4.35355 5.35355L5.35355 4.35355C5.44732 4.25979 5.5 4.13261 5.5 4V3C5.5 2.72386 5.27614 2.5 5 2.5H4Z" stroke="#992E2E" stroke-linejoin="round"/>
<path d="M3 26.5C2.72386 26.5 2.5 26.7239 2.5 27V28C2.5 28.1326 2.55268 28.2598 2.64645 28.3536L3.64645 29.3536C3.74021 29.4473 3.86739 29.5 4 29.5H5C5.27614 29.5 5.5 29.2761 5.5 29V28C5.5 27.8674 5.44732 27.7402 5.35355 27.6464L4.35355 26.6464C4.25979 26.5527 4.13261 26.5 4 26.5H3Z" stroke="#992E2E" stroke-linejoin="round"/>
<path d="M30.3536 5.64645C30.2106 5.50345 29.9955 5.46067 29.8087 5.53806C29.6218 5.61545 29.5 5.79777 29.5 6V14C29.5 14.0776 29.5181 14.1542 29.5528 14.2236L30.441 16L29.5528 17.7764C29.5181 17.8458 29.5 17.9224 29.5 18V26C29.5 26.2022 29.6218 26.3846 29.8087 26.4619C29.9955 26.5393 30.2106 26.4966 30.3536 26.3536L31.3536 25.3536C31.4473 25.2598 31.5 25.1326 31.5 25V16V7C31.5 6.86739 31.4473 6.74021 31.3536 6.64645L30.3536 5.64645Z" stroke="#992E2E" stroke-linejoin="round"/>
<path d="M27 2.5C26.7239 2.5 26.5 2.72386 26.5 3V4C26.5 4.13261 26.5527 4.25979 26.6464 4.35355L27.6464 5.35355C27.7402 5.44732 27.8674 5.5 28 5.5H29C29.2761 5.5 29.5 5.27614 29.5 5V4C29.5 3.86739 29.4473 3.74021 29.3536 3.64645L28.3536 2.64645C28.2598 2.55268 28.1326 2.5 28 2.5H27Z" stroke="#992E2E" stroke-linejoin="round"/>
<path d="M28 26.5C27.8674 26.5 27.7402 26.5527 27.6464 26.6464L26.6464 27.6464C26.5527 27.7402 26.5 27.8674 26.5 28V29C26.5 29.2761 26.7239 29.5 27 29.5H28C28.1326 29.5 28.2598 29.4473 28.3536 29.3536L29.3536 28.3536C29.4473 28.2598 29.5 28.1326 29.5 28V27C29.5 26.7239 29.2761 26.5 29 26.5H28Z" stroke="#992E2E" stroke-linejoin="round"/>
</g>
<defs>
<clipPath id="clip0_23_227">
<rect width="32" height="32" fill="white"/>
</clipPath>
</defs>
</svg>
