<svg id="eeic1TwCtS81" xmlns="http://www.w3.org/2000/svg" xmlns:xlink="http://www.w3.org/1999/xlink" viewBox="0 0 500 350" shape-rendering="geometricPrecision" text-rendering="geometricPrecision"><g><g opacity="0.15"><g><path d="M111.518,233.363c0,66.32,75.547,66.471,168.334,67.292c74.553.661,131.289,16.48,163.062-43.534c32.625-61.614-11.003-191.938-102.728-191.938-109.704-.001-228.668,59.009-228.668,168.18Z" fill="#fff"/></g></g><g><rect width="62.621" height="67.338" rx="0" ry="0" transform="translate(97.341 149.087)" fill="#f9b640"/><polygon points="149.011,152.61 159.948,149.087 159.948,216.425 149.011,219.946" fill="#c92f3b"/><polygon points="149.011,219.946 153.565,225.372 153.287,157.438 149.011,152.61" fill="#e59429"/><polygon points="106.172,152.61 97.341,149.087 97.341,216.425 106.172,219.946" fill="#e03d51"/><polygon points="106.172,219.946 91.178,224.774 91.178,157.438 106.172,152.61" fill="#e59429"/><rect width="62.619" height="67.336" rx="0" ry="0" transform="translate(91.178 157.438)" fill="#e03d51"/><path d="M109.768,165.728c0,1.287-1.043,2.33-2.332,2.33s-2.333-1.043-2.333-2.33c0-1.291,1.044-2.332,2.333-2.332s2.332,1.041,2.332,2.332Z" fill="#e59429"/><path d="M141.576,165.728c0,1.287-1.044,2.33-2.332,2.33-1.286,0-2.331-1.043-2.331-2.33c0-1.291,1.045-2.332,2.331-2.332c1.288,0,2.332,1.041,2.332,2.332Z" fill="#e59429"/><g><path d="M112.977,135.624v-3.389c-2.39-.107-4.705-.781-6.056-1.529l1.065-4.164c1.494.816,3.597,1.564,5.912,1.564c2.071,0,3.46-.818,3.46-2.205c0-1.354-1.142-2.213-3.816-3.104-3.81-1.283-6.408-3.061-6.408-6.516c0-3.17,2.208-5.631,6.016-6.34v-3.387h3.49v3.135c2.354.072,3.959.607,5.207,1.178l-1.073,4.021c-.888-.426-2.558-1.244-5.13-1.244-2.31,0-3.063,1.031-3.063,2.027c0,1.139,1.248,1.924,4.312,3.027c4.238,1.496,5.913,3.459,5.913,6.699c0,3.17-2.207,5.881-6.308,6.555v3.67h-3.521Z" fill="#f9b640"/></g><g><path d="M97.105,112.751v-1.918c-1.357-.063-2.668-.443-3.433-.869l.604-2.361c.845.465,2.036.889,3.351.889c1.171,0,1.959-.465,1.959-1.252c0-.768-.646-1.252-2.162-1.758-2.16-.729-3.634-1.734-3.634-3.693c0-1.799,1.252-3.193,3.409-3.594v-1.92h1.981v1.775c1.332.043,2.243.346,2.952.67l-.608,2.279c-.504-.242-1.451-.705-2.909-.705-1.308,0-1.733.584-1.733,1.148c0,.646.704,1.092,2.44,1.715c2.402.85,3.352,1.963,3.352,3.797c0,1.799-1.25,3.334-3.573,3.719v2.078h-1.996Z" fill="#f9b640"/></g><g><path d="M126.05,187.595h-5.565c-7.894,0-14.313-6.42-14.313-14.313v-7.555c0-.66.533-1.193,1.191-1.193.659,0,1.193.533,1.193,1.193v7.555c0,6.576,5.351,11.928,11.929,11.928h5.565c6.576,0,11.927-5.352,11.927-11.928v-7.555c0-.66.534-1.193,1.192-1.193.659,0,1.192.533,1.192,1.193v7.555c0,7.893-6.42,14.313-14.311,14.313Z" fill="#d8dfe9"/></g></g><g><g><path d="M383.31,223.095c0,5.678-4.722,10.268-10.539,10.268h-231.463c-5.82,0-10.538-4.59-10.538-10.268v-141.277c0-5.675,4.718-10.266,10.538-10.266h231.463c5.817,0,10.539,4.591,10.539,10.266v141.277Z" fill="#414682"/><path d="M372.771,71.553h-231.463c-5.82,0-10.538,4.591-10.538,10.266v19.058h252.54v-19.059c0-5.674-4.722-10.265-10.539-10.265Z" fill="#252956"/><path d="M156.331,86.302c0,2.809-2.345,5.093-5.239,5.093-2.889,0-5.233-2.284-5.233-5.093c0-2.819,2.345-5.097,5.233-5.097c2.894,0,5.239,2.277,5.239,5.097Z" fill="#f5f9fc"/><path d="M169.555,86.302c0,2.809-2.345,5.093-5.244,5.093-2.884,0-5.228-2.284-5.228-5.093c0-2.819,2.344-5.097,5.228-5.097c2.899,0,5.244,2.277,5.244,5.097Z" fill="#f5f9fc"/><path d="M182.316,86.302c0,2.809-2.342,5.093-5.235,5.093-2.886,0-5.228-2.284-5.228-5.093c0-2.819,2.342-5.097,5.228-5.097c2.894,0,5.235,2.277,5.235,5.097Z" fill="#f5f9fc"/></g><rect width="84.597" height="20.806" rx="0" ry="0" transform="translate(163.283 201.795)" fill="#a27cf5"/><rect width="84.596" height="20.806" rx="0" ry="0" transform="translate(259.007 201.795)" fill="#d8dfe9"/><rect width="222.913" height="75.305" rx="0" ry="0" transform="translate(142.589 106.667)" fill="#a27cf5"/></g><g><g><path d="M173.068,71.553c.238-.443.479-.88.725-1.31" fill="none" stroke="#fce2c0" stroke-width="2" stroke-linecap="round" stroke-linejoin="round"/><path d="M177.025,65.212c31.974-44.176,110.676-6.378,192.731-27.839c84.328-22.055,156.74,109.804,92.407,185.477" fill="none" stroke="#fce2c0" stroke-width="2" stroke-linecap="round" stroke-linejoin="round" stroke-dasharray="2.9913,5.9825"/><path d="M460.188,225.11c-.334.371-.671.74-1.012,1.108" fill="none" stroke="#fce2c0" stroke-width="2" stroke-linecap="round" stroke-linejoin="round"/></g></g><path d="M422.015,303.451c0,5.277-63.932,9.543-142.799,9.543-78.862,0-142.794-4.266-142.794-9.543c0-5.272,63.932-9.547,142.794-9.547c78.867,0,142.799,4.275,142.799,9.547Z" opacity="0.1"/><g><rect width="134.505" height="134.513" rx="0" ry="0" transform="translate(324.671 166.103)" fill="#f9b640"/><rect width="134.505" height="12.707" rx="0" ry="0" transform="translate(324.671 166.103)" fill="#e59429"/><path d="M448.303,172.91c0,1.632,1.156,2.952,2.577,2.952c1.425,0,2.579-1.32,2.579-2.952c0-1.622-1.154-2.938-2.579-2.938-1.421,0-2.577,1.317-2.577,2.938Z" fill="#f5f9fc"/><path d="M440.569,172.91c0,1.632,1.151,2.952,2.578,2.952c1.417,0,2.579-1.32,2.579-2.952c0-1.622-1.162-2.938-2.579-2.938-1.426,0-2.578,1.317-2.578,2.938Z" fill="#f5f9fc"/><path d="M432.826,172.91c0,1.632,1.16,2.952,2.583,2.952c1.429,0,2.577-1.32,2.577-2.952c0-1.622-1.148-2.938-2.577-2.938-1.423,0-2.583,1.317-2.583,2.938Z" fill="#f5f9fc"/><rect width="121.924" height="22.476" rx="0" ry="0" transform="translate(331.535 189.952)" fill="#fce2c0"/><rect width="121.924" height="22.473" rx="0" ry="0" transform="translate(331.535 267.639)" fill="#fce2c0"/><rect width="58.311" height="19.902" rx="0" ry="0" transform="translate(395.148 216.267)" fill="#fce2c0"/><rect width="58.311" height="19.904" rx="0" ry="0" transform="translate(395.148 239.66)" fill="#fce2c0"/><rect width="54.006" height="43.297" rx="0" ry="0" transform="translate(331.535 216.267)" fill="#fce2c0"/></g><g><g><path d="M171.902,263.399c0,5.454,4.717,9.864,10.539,9.864h231.463c5.818,0,10.537-4.41,10.537-9.864v-135.722c0-5.443-4.719-9.858-10.537-9.858h-231.463c-5.822,0-10.539,4.415-10.539,9.858v135.722Z" fill="#f5f9fc"/><path d="M182.441,117.818h231.463c5.818,0,10.537,4.415,10.537,9.858v18.313h-252.539v-18.313c0-5.443,4.717-9.858,10.539-9.858Z" fill="#d8dfe9"/><path d="M398.882,131.986c0,2.704,2.347,4.894,5.235,4.894c2.893,0,5.232-2.189,5.232-4.894c0-2.707-2.34-4.895-5.232-4.895-2.888,0-5.235,2.188-5.235,4.895Z" fill="#f5f9fc"/><path d="M385.66,131.986c0,2.704,2.337,4.894,5.237,4.894c2.889,0,5.228-2.189,5.228-4.894c0-2.707-2.339-4.895-5.228-4.895-2.9,0-5.237,2.188-5.237,4.895Z" fill="#f5f9fc"/><path d="M372.894,131.986c0,2.704,2.345,4.894,5.235,4.894c2.885,0,5.234-2.189,5.234-4.894c0-2.707-2.35-4.895-5.234-4.895-2.891,0-5.235,2.188-5.235,4.895Z" fill="#f5f9fc"/></g><rect width="84.588" height="19.987" rx="0" ry="0" transform="translate(307.336 242.941)" fill="#d8dfe9"/><rect width="84.592" height="19.987" rx="0" ry="0" transform="translate(211.61 242.941)" fill="#d8dfe9"/><rect width="222.91" height="72.342" rx="0" ry="0" transform="translate(189.712 151.552)" fill="#d8dfe9"/></g><g><g><path d="M197.668,155.242c0-38.045,30.844-68.884,68.88-68.884c38.046,0,68.892,30.839,68.892,68.884c0,20.695-15.665,34.409-23.604,51.886-6.049,13.306-6.181,58.443-6.181,58.443h-78.207c0,0-.128-45.137-6.172-58.443-7.934-17.477-23.608-31.184-23.608-51.886Z" fill="#f9b640"/></g><g><path d="M213.876,151.169c0,29.616,24.02,53.639,53.645,53.639c29.621,0,53.637-24.022,53.637-53.639c0-29.618-24.016-53.638-53.637-53.638-29.625,0-53.645,24.02-53.645,53.638Z" fill="#f4a517"/></g><g><g><polygon points="279.929,241.824 298.417,167.791 236.623,167.791 254.463,241.813 257.613,241.06 240.737,171.034 294.265,171.034 276.791,241.041" fill="#8461e2"/></g></g><g><rect width="81.939" height="53.133" rx="0" ry="0" transform="translate(225.553 240.812)" fill="#a27cf5"/></g><g><path d="M218.118,253.165c0,2.372,1.929,4.301,4.315,4.301h90.179c2.377,0,4.3-1.929,4.3-4.301v0c0-2.382-1.923-4.31-4.3-4.31h-90.179c-2.386,0-4.315,1.928-4.315,4.31v0Z" fill="#8461e2"/></g><g><path d="M218.118,265.511c0,2.381,1.929,4.311,4.315,4.311h90.179c2.377,0,4.3-1.93,4.3-4.311v0c0-2.375-1.923-4.301-4.3-4.301h-90.179c-2.386,0-4.315,1.926-4.315,4.301v0Z" fill="#8461e2"/></g><g><path d="M218.118,277.856c0,2.381,1.929,4.307,4.315,4.307h90.179c2.377,0,4.3-1.926,4.3-4.307v0c0-2.375-1.923-4.307-4.3-4.307h-90.179c-2.386.001-4.315,1.932-4.315,4.307v0Z" fill="#8461e2"/></g><g><path d="M235.017,293.944c0,3.483,2.831,6.317,6.311,6.317h50.872c3.474,0,6.304-2.834,6.304-6.317v0c0-3.481-2.83-6.308-6.304-6.308h-50.873c-3.479.001-6.31,2.827-6.31,6.308v0Z" fill="#a27cf5"/></g><g><g><path d="M218.118,240.812c0,2.372,1.929,4.306,4.315,4.306h90.179c2.377,0,4.3-1.934,4.3-4.306v0c0-2.385-1.923-4.306-4.3-4.306h-90.179c-2.386,0-4.315,1.921-4.315,4.306v0Z" fill="#8461e2"/></g></g></g><g><path d="M228.285,226.41c4.086,4.207,5.135,11.745,17.572,14.24c10.085,2.032-.805,20.712-19.296,16.555-11.918-2.678-23.718-7.071-18.267-23.901c4.276-13.191,16.01-10.991,19.991-6.894Z" fill="#aa3c3c"/><path d="M208.169,255.996c0,0,5.538-3.715,5.075-14.735-.466-11-6.038-40.166-7.513-43.407-1.479-3.232-3.758-9.471-5.355-10.459-.771-.479,2.175,5.076,2.728,11.612.28,3.286.572,39.875,1.174,46.188.599,6.315-.106,11.371,3.891,10.801Z" fill="#e28c71"/><g id="eeic1TwCtS882" transform="matrix(.996458-.084094 0.084094 0.996458-23.223413 18.416419)"><path d="M143.993,314.593c2.169,1.891,2.497,1.809,3.169,1.279c8.578-6.673,12.301-26.439,25.411-32.929l.018.037c3.503-1.846,8.286-3.473,14.615-4.566c4.772-.834,9.379-1.019,13.245-1.039c14.725-2.339,19.466,5.114,18.149,10.171-3.568,13.71-27.867,10.019-40.687,10.075v0c-1.809,1.235-4.195,2.894-5.239,3.924-7.759,7.738-25.587,22.238-28.185,18.254-2.598-3.987-2.656-7.099-.496-5.206Z" fill="#e67052"/><path d="M200.923,276.274c0,0-28.608,2.282-35.399,12.166c0,0,9.743,4.216,9.645,11.105l9.096-4.086l26.295-12.206-9.637-6.979Z" fill="#c92f3b"/></g><g id="eeic1TwCtS885" transform="translate(.000001 0.000003)"><path d="M208.604,283.155c-3.811.825-7.914.759-12.461,2.564-28.021,11.179-21.179,27.841-10.122,23.403c9.66-3.879,40.389-2.964,41.157-19.275.246-5.268-4.529-12.055-18.574-6.692Z" fill="#ee9d7f"/><path d="M198.025,345.988c-4.713.674-7.555-.591-4.924-1.753c2.632-1.156,2.689-1.498,2.5-2.334-2.433-10.58-18.771-22.304-19.122-36.939l15.667,2.353c.355,2.166.739,4.032,1.234,5.416c3.739,10.3,9.358,32.586,4.645,33.257Z" fill="#ee9d7f"/><path d="M226.267,284.069c0,0,4.712,9.597-6.856,17.208c0,0-7.969,4.925-27.264,6.037c0,0-8.608-9.057-15.246-6.249c0,0,1.799-12.614,29.676-18.103l19.69,1.107Z" fill="#e03d51"/></g><path d="M226.131,229.601c0,0,1.423,12.492,8.748,16.488c9.908,5.414-23.062,11.044-23.062,11.044l6.396-22.87l7.918-4.662Z" fill="#963734"/><path d="M225.271,280.834c-3.183-8.951-.688-11.957,3.232-19.442c6.067-11.573.16-13.847-4.744-16.292-7.753-3.859-17.84-3.013-20.199,4.926-1.994,6.72,2.272,14.439-2.782,24.559-.285.572,28.39,17.208,24.493,6.249Z" fill="#ee9d7f"/><g><path d="M222.256,234.703c0,0-1.754,6.467-.095,9.458c1.052,1.906-9.641,4.527-9.181,2.158.589-3.048,2.55-4.744.917-8.422l8.359-3.194Z" fill="#e28c71"/></g><g><path d="M216.312,225.423c-2.855,2.38-6.413,13.452-3.708,16.086c1.177,1.152,6.349.222,9.864-4.526c1.446-1.948,3.302-5.646,1.466-9.591-.83-1.782-4.312-4.763-7.622-1.969Z" fill="#ee9d7f"/></g><g><path d="M214.082,227.214c-.369,1.595-.462,2.53,3.043,2.39c4.279-.179,3.364,2.956,2.875,4.011-1.449,3.101,4.514.682,2.007,3.934-3.748,4.874,1.795.58,3.713-.903c1.452-1.132,4.063-3.541,1.981-9.153-2.083-5.617-12.504-5.182-13.619-.279Z" fill="#aa3c3c"/></g><path d="M201.32,264.082c-.008-.023-.016-.047-.027-.066-3.893-9.834,9.727-20.741,9.727-20.741l4.516-.902c-9.657,8.65-10.668,11.271-7.926,12.189c9.122,3.034,17.67-8.708,17.67-8.708s1.454.517,1.89.788c.367.231,1.294,1.158,1.294,1.158s-5.982.598-7.553,8.958c-1.898,10.133,4.989,9.891,4.989,9.891-1.007,3.326-2.021,5.6-.808,11.797.005.034,1.175,5.623,1.175,5.623-7.304,2.556-19.963-.848-30.49-7.209-.001,0,6.755-3.139,5.543-12.778Z" fill="#fcdcda"/><path d="M225.956,266.213c-1.009,3.334-1.906,6.003-.864,12.233.005.034,1.265,5.821,1.265,5.821-6.44,2.542-17.941-1.558-17.941-1.558c3.316-1.753,7.142-7.266.868-11.417-6.265-4.146,1.521-3.494,6.23-3.617c2.533-.063,4.19-3.163,5.196-6.022.783,5.137,5.246,4.56,5.246,4.56Z" fill="#efbebd"/><polygon points="199.166,288.778 209.294,283.598 191.076,274.585" fill="#ea68c3"/><polygon points="195.131,273.655 173.068,264.793 176.633,281.001 199.166,288.778" fill="#fe88d4"/><path d="M228.063,247.97c0,0-3.133-.95-5.288,3.683-2.498,5.409.797,19.386-4.863,25.558-5.667,6.15-11.398,5.072-15.337,4.814-3.943-.253-5.396-2.104-7.71-2.014-2.302.091-2.055,2.685,4.165,4.525c2.975.881,17.146,6.902,25.327.749c10.722-8.056,11.435-35.733,3.706-37.315Z" fill="#e28c71"/></g><g><g><path d="M422.843,268.362c-.144,0-.289-.04-.421-.124l-54.164-34.539c-.366-.232-.474-.718-.24-1.084.234-.365.719-.472,1.084-.24l54.164,34.54c.366.233.474.718.241,1.083-.151.236-.404.364-.664.364Z" fill="#e03d51"/></g><g id="eeic1TwCtS8105" transform="matrix(.999864-.016514 0.016514 0.999864-4.346236 7.079186)"><circle r="25.238" transform="translate(426.468 266.702)" fill="#e03d51"/><g><circle r="2.984" transform="translate(423.539 279.595)" fill="#fff"/><circle r="2.984" transform="translate(434.76 279.595)" fill="#fff"/><path d="M419.322,258.746c-.027,0-.056.006-.082.009l-.836-3.879c-.089-.414-.398-.743-.804-.859l-4.012-1.147c-.609-.175-1.241.179-1.417.786-.173.609.179,1.243.786,1.418l3.35.956l3.868,17.949c.112.526.577.902,1.117.905l15.93.046c0,0,.002,0,.005,0c.629,0,1.143-.51,1.145-1.143.003-.633-.51-1.147-1.144-1.149l-15.009-.043-.478-2.231l16.519.001c.525,0,.955-.426.955-.954l1.592-8.436-21.485-2.229Z" fill="#fff"/></g></g></g><g><g><path d="M372.607,78.235c-.307-.307-.307-.804-.001-1.11l24.996-24.996c.307-.307.804-.307,1.11,0s.307.804,0,1.11L373.716,78.235c-.305.307-.802.307-1.109,0Z" transform="matrix(1.389501 0 0 1.158452-150.21466-10.328218)" fill="#fce2c0"/></g><g id="eeic1TwCtS8114" transform="matrix(.976013-.217713 0.217713 0.976013 1.351117 90.775022)"><circle r="22.602" transform="translate(412.622 39.256)" fill="#fce2c0"/><g><path d="M423.635,32.56h-22.028c-.296,0-.563.116-.765.299l10.974,9.052c.445.368,1.165.368,1.611,0l10.974-9.052c-.203-.183-.47-.299-.766-.299Z" fill="#e59429"/><path d="M413.484,43.371c-.479.395-1.249.395-1.728,0l-11.291-9.314v12.569c0,.628.511,1.139,1.141,1.139h22.028c.632,0,1.143-.511,1.143-1.139v-12.57l-11.293,9.315Zm-6.008-1.654l-5.318,5.064c-.09.088-.212.132-.331.132-.126,0-.252-.049-.347-.147-.182-.192-.172-.496.016-.678l5.32-5.063c.191-.183.494-.177.678.015.181.19.175.494-.018.677Zm16.287,5.049c-.095.098-.22.147-.349.147-.118,0-.237-.044-.329-.132l-5.316-5.064c-.193-.183-.201-.486-.02-.677.186-.192.488-.196.678-.015l5.318,5.063c.192.182.198.485.018.678Z" fill="#e59429"/></g></g></g><g><g><path d="M271.281,79.929c-.425.088-.84-.184-.929-.607l-7.204-34.608c-.088-.424.185-.84.609-.928s.84.184.929.608l7.204,34.608c.089.423-.184.838-.609.927Z" fill="#fcb6d9"/></g><g id="eeic1TwCtS8122"><circle r="22.602" transform="translate(266.207 40.185)" fill="#fcb6d9"/><g><path d="M266.207,27.092c-6.014,0-10.889,4.874-10.889,10.888c0,6.016,10.889,15.298,10.889,15.298s10.889-9.282,10.889-15.298c0-6.015-4.875-10.888-10.889-10.888Zm0,16.293c-2.984,0-5.404-2.42-5.404-5.405c0-2.984,2.42-5.403,5.404-5.403c2.986,0,5.406,2.419,5.406,5.403c0,2.985-2.42,5.405-5.406,5.405Z" fill="#e03d51"/><circle r="5.404" transform="translate(266.207 37.981)" fill="#fff"/></g></g></g><g><rect width="71.165" height="61.866" rx="0" ry="0" transform="matrix(.9334 0.3587-.3587 0.9334 351.559254 134.312012)" fill="#fc76b2"/><rect width="60.784" height="30.82" rx="0" ry="0" transform="matrix(.9335 0.3587-.3587 0.9335 347.752834 160.83718)" fill="#f5f9fc"/><path d="M369.146,156.092c-1.81,4.712-7.097,7.068-11.813,5.252-4.711-1.809-7.061-7.093-5.256-11.809c1.813-4.713,7.101-7.067,11.816-5.258c4.715,1.813,7.064,7.102,5.253,11.815Z" fill="#f5f9fc"/><rect width="38.712" height="2.649" rx="0" ry="0" transform="matrix(.9335 0.3587-.3587 0.9335 373.536988 155.282091)" fill="#f5f9fc"/><rect width="38.712" height="2.644" rx="0" ry="0" transform="matrix(.9335 0.3586-.3586 0.9335 375.434558 150.296901)" fill="#f5f9fc"/><polygon points="406.793,176.615 370.655,162.731 371.604,160.267 407.739,174.145" fill="#f5f9fc"/><polygon points="339.881,188.169 391.314,207.937 390.207,184.642 374.056,192.913 370.137,172.798 354.63,182.165 351.509,176.506" fill="#f9b640"/></g><g id="eeic1TwCtS8135"><circle r="5" transform="translate(443.569 105.531)" fill="#fce2c0"/><circle r="5" transform="translate(120.569 274.531)" fill="#fce2c0"/><circle r="5" transform="translate(481.569 232.531)" fill="#fce2c0"/><circle r="2.5" transform="translate(454.569 114.531)" fill="#fce2c0"/><circle r="2.5" transform="translate(483.569 211.531)" fill="#fce2c0"/><circle r="2.5" transform="translate(484.569 290.531)" fill="#fce2c0"/><circle r="5" transform="translate(166.1 44.794)" fill="#fce2c0"/><circle r="2.5" transform="translate(169.056 34.082)" fill="#fce2c0"/><circle r="2.5" transform="translate(180.962 45.092)" fill="#fce2c0"/><circle r="2.5" transform="translate(456.962 27.092)" fill="#fce2c0"/><circle r="2.5" transform="translate(155.962 270.092)" fill="#fce2c0"/></g><g id="eeic1TwCtS8147"><circle r="5" transform="translate(470.569 37.531)" fill="#f9b640"/><circle r="5" transform="translate(147.569 262.531)" fill="#f9b640"/><circle r="5" transform="translate(472.569 298.531)" fill="#f9b640"/><circle r="2.5" transform="translate(437.569 114.531)" fill="#f9b640"/><circle r="2.5" transform="translate(489.569 223.531)" fill="#f9b640"/><circle r="2.5" transform="translate(138.569 58.531)" fill="#f9b640"/><circle r="5" transform="translate(242.1 19.794)" fill="#f9b640"/><circle r="2.5" transform="translate(232.962 32.092)" fill="#f9b640"/><circle r="2.5" transform="translate(373.962 53.092)" fill="#f9b640"/><circle r="2.5" transform="translate(211.962 58.092)" fill="#f9b640"/></g></g>
<script><![CDATA[
!function(t,n){"object"==typeof exports&&"undefined"!=typeof module?module.exports=n():"function"==typeof __SVGATOR_DEFINE__&&__SVGATOR_DEFINE__.amd?__SVGATOR_DEFINE__(n):((t="undefined"!=typeof globalThis?globalThis:t||self).__SVGATOR_PLAYER__=t.__SVGATOR_PLAYER__||{},t.__SVGATOR_PLAYER__["5c7f360c"]=n())}(this,(function(){"use strict";function t(t,n){var e=Object.keys(t);if(Object.getOwnPropertySymbols){var r=Object.getOwnPropertySymbols(t);n&&(r=r.filter((function(n){return Object.getOwnPropertyDescriptor(t,n).enumerable}))),e.push.apply(e,r)}return e}function n(n){for(var e=1;e<arguments.length;e++){var r=null!=arguments[e]?arguments[e]:{};e%2?t(Object(r),!0).forEach((function(t){o(n,t,r[t])})):Object.getOwnPropertyDescriptors?Object.defineProperties(n,Object.getOwnPropertyDescriptors(r)):t(Object(r)).forEach((function(t){Object.defineProperty(n,t,Object.getOwnPropertyDescriptor(r,t))}))}return n}function e(t){return(e="function"==typeof Symbol&&"symbol"==typeof Symbol.iterator?function(t){return typeof t}:function(t){return t&&"function"==typeof Symbol&&t.constructor===Symbol&&t!==Symbol.prototype?"symbol":typeof t})(t)}function r(t,n){if(!(t instanceof n))throw new TypeError("Cannot call a class as a function")}function i(t,n){for(var e=0;e<n.length;e++){var r=n[e];r.enumerable=r.enumerable||!1,r.configurable=!0,"value"in r&&(r.writable=!0),Object.defineProperty(t,r.key,r)}}function u(t,n,e){return n&&i(t.prototype,n),e&&i(t,e),t}function o(t,n,e){return n in t?Object.defineProperty(t,n,{value:e,enumerable:!0,configurable:!0,writable:!0}):t[n]=e,t}function a(t){return(a=Object.setPrototypeOf?Object.getPrototypeOf:function(t){return t.__proto__||Object.getPrototypeOf(t)})(t)}function l(t,n){return(l=Object.setPrototypeOf||function(t,n){return t.__proto__=n,t})(t,n)}function s(){if("undefined"==typeof Reflect||!Reflect.construct)return!1;if(Reflect.construct.sham)return!1;if("function"==typeof Proxy)return!0;try{return Boolean.prototype.valueOf.call(Reflect.construct(Boolean,[],(function(){}))),!0}catch(t){return!1}}function f(t,n,e){return(f=s()?Reflect.construct:function(t,n,e){var r=[null];r.push.apply(r,n);var i=new(Function.bind.apply(t,r));return e&&l(i,e.prototype),i}).apply(null,arguments)}function c(t,n){if(n&&("object"==typeof n||"function"==typeof n))return n;if(void 0!==n)throw new TypeError("Derived constructors may only return object or undefined");return function(t){if(void 0===t)throw new ReferenceError("this hasn't been initialised - super() hasn't been called");return t}(t)}function h(t,n,e){return(h="undefined"!=typeof Reflect&&Reflect.get?Reflect.get:function(t,n,e){var r=function(t,n){for(;!Object.prototype.hasOwnProperty.call(t,n)&&null!==(t=a(t)););return t}(t,n);if(r){var i=Object.getOwnPropertyDescriptor(r,n);return i.get?i.get.call(e):i.value}})(t,n,e||t)}function v(t){return function(t){if(Array.isArray(t))return y(t)}(t)||function(t){if("undefined"!=typeof Symbol&&null!=t[Symbol.iterator]||null!=t["@@iterator"])return Array.from(t)}(t)||function(t,n){if(!t)return;if("string"==typeof t)return y(t,n);var e=Object.prototype.toString.call(t).slice(8,-1);"Object"===e&&t.constructor&&(e=t.constructor.name);if("Map"===e||"Set"===e)return Array.from(t);if("Arguments"===e||/^(?:Ui|I)nt(?:8|16|32)(?:Clamped)?Array$/.test(e))return y(t,n)}(t)||function(){throw new TypeError("Invalid attempt to spread non-iterable instance.\nIn order to be iterable, non-array objects must have a [Symbol.iterator]() method.")}()}function y(t,n){(null==n||n>t.length)&&(n=t.length);for(var e=0,r=new Array(n);e<n;e++)r[e]=t[e];return r}Number.isInteger||(Number.isInteger=function(t){return"number"==typeof t&&isFinite(t)&&Math.floor(t)===t}),Number.EPSILON||(Number.EPSILON=2220446049250313e-31);var g=d(Math.pow(10,-6));function d(t){var n=arguments.length>1&&void 0!==arguments[1]?arguments[1]:6;if(Number.isInteger(t))return t;var e=Math.pow(10,n);return Math.round((+t+Number.EPSILON)*e)/e}function p(t,n){var e=arguments.length>2&&void 0!==arguments[2]?arguments[2]:g;return Math.abs(t-n)<e}var m=Math.PI/180;function b(t){return t}function w(t,n,e){var r=1-e;return 3*e*r*(t*r+n*e)+e*e*e}function A(){var t=arguments.length>0&&void 0!==arguments[0]?arguments[0]:0,n=arguments.length>1&&void 0!==arguments[1]?arguments[1]:0,e=arguments.length>2&&void 0!==arguments[2]?arguments[2]:1,r=arguments.length>3&&void 0!==arguments[3]?arguments[3]:1;return t<0||t>1||e<0||e>1?null:p(t,n)&&p(e,r)?b:function(i){if(i<=0)return t>0?i*n/t:0===n&&e>0?i*r/e:0;if(i>=1)return e<1?1+(i-1)*(r-1)/(e-1):1===e&&t<1?1+(i-1)*(n-1)/(t-1):1;for(var u,o=0,a=1;o<a;){var l=w(t,e,u=(o+a)/2);if(p(i,l))break;l<i?o=u:a=u}return w(n,r,u)}}function _(){return 1}function x(t){return 1===t?1:0}function k(){var t=arguments.length>0&&void 0!==arguments[0]?arguments[0]:1,n=arguments.length>1&&void 0!==arguments[1]?arguments[1]:0;if(1===t){if(0===n)return x;if(1===n)return _}var e=1/t;return function(t){return t>=1?1:(t+=n*e)-t%e}}var S=Math.sin,O=Math.cos,j=Math.acos,E=Math.asin,M=Math.tan,P=Math.atan2,I=Math.PI/180,R=180/Math.PI,F=Math.sqrt,N=function(){function t(){var n=arguments.length>0&&void 0!==arguments[0]?arguments[0]:1,e=arguments.length>1&&void 0!==arguments[1]?arguments[1]:0,i=arguments.length>2&&void 0!==arguments[2]?arguments[2]:0,u=arguments.length>3&&void 0!==arguments[3]?arguments[3]:1,o=arguments.length>4&&void 0!==arguments[4]?arguments[4]:0,a=arguments.length>5&&void 0!==arguments[5]?arguments[5]:0;r(this,t),this.m=[n,e,i,u,o,a],this.i=null,this.w=null,this.s=null}return u(t,[{key:"determinant",get:function(){var t=this.m;return t[0]*t[3]-t[1]*t[2]}},{key:"isIdentity",get:function(){if(null===this.i){var t=this.m;this.i=1===t[0]&&0===t[1]&&0===t[2]&&1===t[3]&&0===t[4]&&0===t[5]}return this.i}},{key:"point",value:function(t,n){var e=this.m;return{x:e[0]*t+e[2]*n+e[4],y:e[1]*t+e[3]*n+e[5]}}},{key:"translateSelf",value:function(){var t=arguments.length>0&&void 0!==arguments[0]?arguments[0]:0,n=arguments.length>1&&void 0!==arguments[1]?arguments[1]:0;if(!t&&!n)return this;var e=this.m;return e[4]+=e[0]*t+e[2]*n,e[5]+=e[1]*t+e[3]*n,this.w=this.s=this.i=null,this}},{key:"rotateSelf",value:function(){var t=arguments.length>0&&void 0!==arguments[0]?arguments[0]:0;if(t%=360){var n=S(t*=I),e=O(t),r=this.m,i=r[0],u=r[1];r[0]=i*e+r[2]*n,r[1]=u*e+r[3]*n,r[2]=r[2]*e-i*n,r[3]=r[3]*e-u*n,this.w=this.s=this.i=null}return this}},{key:"scaleSelf",value:function(){var t=arguments.length>0&&void 0!==arguments[0]?arguments[0]:1,n=arguments.length>1&&void 0!==arguments[1]?arguments[1]:1;if(1!==t||1!==n){var e=this.m;e[0]*=t,e[1]*=t,e[2]*=n,e[3]*=n,this.w=this.s=this.i=null}return this}},{key:"skewSelf",value:function(t,n){if(n%=360,(t%=360)||n){var e=this.m,r=e[0],i=e[1],u=e[2],o=e[3];t&&(t=M(t*I),e[2]+=r*t,e[3]+=i*t),n&&(n=M(n*I),e[0]+=u*n,e[1]+=o*n),this.w=this.s=this.i=null}return this}},{key:"resetSelf",value:function(){var t=arguments.length>0&&void 0!==arguments[0]?arguments[0]:1,n=arguments.length>1&&void 0!==arguments[1]?arguments[1]:0,e=arguments.length>2&&void 0!==arguments[2]?arguments[2]:0,r=arguments.length>3&&void 0!==arguments[3]?arguments[3]:1,i=arguments.length>4&&void 0!==arguments[4]?arguments[4]:0,u=arguments.length>5&&void 0!==arguments[5]?arguments[5]:0,o=this.m;return o[0]=t,o[1]=n,o[2]=e,o[3]=r,o[4]=i,o[5]=u,this.w=this.s=this.i=null,this}},{key:"recomposeSelf",value:function(){var t=arguments.length>0&&void 0!==arguments[0]?arguments[0]:null,n=arguments.length>1&&void 0!==arguments[1]?arguments[1]:null,e=arguments.length>2&&void 0!==arguments[2]?arguments[2]:null,r=arguments.length>3&&void 0!==arguments[3]?arguments[3]:null,i=arguments.length>4&&void 0!==arguments[4]?arguments[4]:null;return this.isIdentity||this.resetSelf(),t&&(t.x||t.y)&&this.translateSelf(t.x,t.y),n&&this.rotateSelf(n),e&&(e.x&&this.skewSelf(e.x,0),e.y&&this.skewSelf(0,e.y)),!r||1===r.x&&1===r.y||this.scaleSelf(r.x,r.y),i&&(i.x||i.y)&&this.translateSelf(i.x,i.y),this}},{key:"decompose",value:function(){var t=arguments.length>0&&void 0!==arguments[0]?arguments[0]:0,n=arguments.length>1&&void 0!==arguments[1]?arguments[1]:0,e=this.m,r=e[0]*e[0]+e[1]*e[1],i=[[e[0],e[1]],[e[2],e[3]]],u=F(r);if(0===u)return{origin:{x:d(e[4]),y:d(e[5])},translate:{x:d(t),y:d(n)},scale:{x:0,y:0},skew:{x:0,y:0},rotate:0};i[0][0]/=u,i[0][1]/=u;var o=e[0]*e[3]-e[1]*e[2]<0;o&&(u=-u);var a=i[0][0]*i[1][0]+i[0][1]*i[1][1];i[1][0]-=i[0][0]*a,i[1][1]-=i[0][1]*a;var l=F(i[1][0]*i[1][0]+i[1][1]*i[1][1]);if(0===l)return{origin:{x:d(e[4]),y:d(e[5])},translate:{x:d(t),y:d(n)},scale:{x:d(u),y:0},skew:{x:0,y:0},rotate:0};i[1][0]/=l,i[1][1]/=l,a/=l;var s=0;return i[1][1]<0?(s=j(i[1][1])*R,i[0][1]<0&&(s=360-s)):s=E(i[0][1])*R,o&&(s=-s),a=P(a,F(i[0][0]*i[0][0]+i[0][1]*i[0][1]))*R,o&&(a=-a),{origin:{x:d(e[4]),y:d(e[5])},translate:{x:d(t),y:d(n)},scale:{x:d(u),y:d(l)},skew:{x:d(a),y:0},rotate:d(s)}}},{key:"clone",value:function(){var t=this.m;return new this.constructor(t[0],t[1],t[2],t[3],t[4],t[5])}},{key:"toString",value:function(){var t=arguments.length>0&&void 0!==arguments[0]?arguments[0]:" ";if(null===this.s){var n=this.m.map((function(t){return d(t)}));1===n[0]&&0===n[1]&&0===n[2]&&1===n[3]?this.s="translate("+n[4]+t+n[5]+")":this.s="matrix("+n.join(t)+")"}return this.s}}],[{key:"create",value:function(t){return t?Array.isArray(t)?f(this,v(t)):t instanceof this?t.clone():(new this).recomposeSelf(t.origin,t.rotate,t.skew,t.scale,t.translate):new this}}]),t}();function T(t,n,e){return t>=.5?e:n}function B(t,n,e){return 0===t||n===e?n:t*(e-n)+n}function q(t,n,e){var r=B(t,n,e);return r<=0?0:r}function D(t,n,e){var r=B(t,n,e);return r<=0?0:r>=1?1:r}function L(t,n,e){return 0===t?n:1===t?e:{x:B(t,n.x,e.x),y:B(t,n.y,e.y)}}function C(t,n,e){var r=function(t,n,e){return Math.round(B(t,n,e))}(t,n,e);return r<=0?0:r>=255?255:r}function V(t,n,e){return 0===t?n:1===t?e:{r:C(t,n.r,e.r),g:C(t,n.g,e.g),b:C(t,n.b,e.b),a:B(t,null==n.a?1:n.a,null==e.a?1:e.a)}}function G(t,n){for(var e=[],r=0;r<t;r++)e.push(n);return e}function z(t,n){if(--n<=0)return t;var e=(t=Object.assign([],t)).length;do{for(var r=0;r<e;r++)t.push(t[r])}while(--n>0);return t}var Y,$=function(){function t(n){r(this,t),this.list=n,this.length=n.length}return u(t,[{key:"setAttribute",value:function(t,n){for(var e=this.list,r=0;r<this.length;r++)e[r].setAttribute(t,n)}},{key:"removeAttribute",value:function(t){for(var n=this.list,e=0;e<this.length;e++)n[e].removeAttribute(t)}},{key:"style",value:function(t,n){for(var e=this.list,r=0;r<this.length;r++)e[r].style[t]=n}}]),t}(),U=/-./g,Q=function(t,n){return n.toUpperCase()};function H(t){return"function"==typeof t?t:T}function J(t){return t?"function"==typeof t?t:Array.isArray(t)?function(t){var n=arguments.length>1&&void 0!==arguments[1]?arguments[1]:b;if(!Array.isArray(t))return n;switch(t.length){case 1:return k(t[0])||n;case 2:return k(t[0],t[1])||n;case 4:return A(t[0],t[1],t[2],t[3])||n}return n}(t,null):function(t,n){var e=arguments.length>2&&void 0!==arguments[2]?arguments[2]:b;switch(t){case"linear":return b;case"steps":return k(n.steps||1,n.jump||0)||e;case"bezier":case"cubic-bezier":return A(n.x1||0,n.y1||0,n.x2||0,n.y2||0)||e}return e}(t.type,t.value,null):null}function Z(t,n,e){var r=arguments.length>3&&void 0!==arguments[3]&&arguments[3],i=n.length-1;if(t<=n[0].t)return r?[0,0,n[0].v]:n[0].v;if(t>=n[i].t)return r?[i,1,n[i].v]:n[i].v;var u,o=n[0],a=null;for(u=1;u<=i;u++){if(!(t>n[u].t)){a=n[u];break}o=n[u]}return null==a?r?[i,1,n[i].v]:n[i].v:o.t===a.t?r?[u,1,a.v]:a.v:(t=(t-o.t)/(a.t-o.t),o.e&&(t=o.e(t)),r?[u,t,e(t,o.v,a.v)]:e(t,o.v,a.v))}function K(t,n){var e=arguments.length>2&&void 0!==arguments[2]?arguments[2]:null;return t&&t.length?"function"!=typeof n?null:("function"!=typeof e&&(e=null),function(r){var i=Z(r,t,n);return null!=i&&e&&(i=e(i)),i}):null}function W(t,n){return t.t-n.t}function X(t,n,r,i,u){var o,a="@"===r[0],l="#"===r[0],s=Y[r],f=T;switch(a?(o=r.substr(1),r=o.replace(U,Q)):l&&(r=r.substr(1)),e(s)){case"function":if(f=s(i,u,Z,J,r,a,n,t),l)return f;break;case"string":f=K(i,H(s));break;case"object":if((f=K(i,H(s.i),s.f))&&"function"==typeof s.u)return s.u(n,f,r,a,t)}return f?function(t,n,e){if(arguments.length>3&&void 0!==arguments[3]&&arguments[3])return t instanceof $?function(r){return t.style(n,e(r))}:function(r){return t.style[n]=e(r)};if(Array.isArray(n)){var r=n.length;return function(i){var u=e(i);if(null==u)for(var o=0;o<r;o++)t[o].removeAttribute(n);else for(var a=0;a<r;a++)t[a].setAttribute(n,u)}}return function(r){var i=e(r);null==i?t.removeAttribute(n):t.setAttribute(n,i)}}(n,r,f,a):null}function tt(t,n,r,i){if(!i||"object"!==e(i))return null;var u=null,o=null;return Array.isArray(i)?o=function(t){if(!t||!t.length)return null;for(var n=0;n<t.length;n++)t[n].e&&(t[n].e=J(t[n].e));return t.sort(W)}(i):(o=i.keys,u=i.data||null),o?X(t,n,r,o,u):null}function nt(t,n,e){if(!e)return null;var r=[];for(var i in e)if(e.hasOwnProperty(i)){var u=tt(t,n,i,e[i]);u&&r.push(u)}return r.length?r:null}function et(t,n){if(!n.settings.duration||n.settings.duration<0)return null;var e,r,i,u,o,a=function(t,n){if(!n)return null;var e=[];if(Array.isArray(n))for(var r=n.length,i=0;i<r;i++){var u=n[i];if(2===u.length){var o=null;if("string"==typeof u[0])o=t.getElementById(u[0]);else if(Array.isArray(u[0])){o=[];for(var a=0;a<u[0].length;a++)if("string"==typeof u[0][a]){var l=t.getElementById(u[0][a]);l&&o.push(l)}o=o.length?1===o.length?o[0]:new $(o):null}if(o){var s=nt(t,o,u[1]);s&&(e=e.concat(s))}}}else for(var f in n)if(n.hasOwnProperty(f)){var c=t.getElementById(f);if(c){var h=nt(t,c,n[f]);h&&(e=e.concat(h))}}return e.length?e:null}(t,n.elements);return a?(e=a,r=n.settings,i=r.duration,u=e.length,o=null,function(t,n){var a=r.iterations||1/0,l=(r.alternate&&a%2==0)^r.direction>0?i:0,s=t%i,f=1+(t-s)/i;n*=r.direction,r.alternate&&f%2==0&&(n=-n);var c=!1;if(f>a)s=l,c=!0,-1===r.fill&&(s=r.direction>0?0:i);else if(n<0&&(s=i-s),s===o)return!1;o=s;for(var h=0;h<u;h++)e[h](s);return c}):null}function rt(t,n){if(Y=n,!t||!t.root||!Array.isArray(t.animations))return null;var e=function(t){for(var n=document.getElementsByTagName("svg"),e=0;e<n.length;e++)if(n[e].id===t.root&&!n[e].svgatorAnimation)return n[e].svgatorAnimation=!0,n[e];return null}(t);if(!e)return null;var r=t.animations.map((function(t){return et(e,t)})).filter((function(t){return!!t}));return r.length?{svg:e,animations:r,animationSettings:t.animationSettings,options:t.options||void 0}:null}function it(t){var n=arguments.length>1&&void 0!==arguments[1]?arguments[1]:null,e=arguments.length>2&&void 0!==arguments[2]?arguments[2]:Number,r=arguments.length>3&&void 0!==arguments[3]?arguments[3]:"undefined"!=typeof BigInt&&BigInt,i="0x"+(t.replace(/[^0-9a-fA-F]+/g,"")||27);return n&&r&&e.isSafeInteger&&!e.isSafeInteger(+i)?e(r(i))%n+n:+i}function ut(t,n,e){return!t||!e||n>t.length?t:t.substring(0,n)+ut(t.substring(n+1),e,e)}function ot(t){var n=arguments.length>1&&void 0!==arguments[1]?arguments[1]:27;return!t||t%n?t%n:[0,1].includes(n)?n:ot(t/n,n)}function at(t,n,e){if(t&&t.length){var r=it(e),i=ot(r)+5,u=ut(t,ot(r,5),i);return u=u.replace(/\x7c$/g,"==").replace(/\x2f$/g,"="),u=function(t,n,e){var r=+("0x"+t.substring(0,4));t=t.substring(4);for(var i=it(n,r)%r+e%27,u=[],o=0;o<t.length;o+=2)if("|"!==t[o]){var a=+("0x"+t[o]+t[o+1])-i;u.push(a)}else{var l=+("0x"+t.substring(o+1,o+1+4))-i;o+=3,u.push(l)}return String.fromCharCode.apply(String,u)}(u=(u=atob(u)).replace(/[\x41-\x5A]/g,""),n,r),u=JSON.parse(u)}}var lt=[{key:"alternate",def:!1},{key:"fill",def:1},{key:"iterations",def:0},{key:"direction",def:1},{key:"speed",def:1},{key:"fps",def:100}],st=function(){function t(n,e){var i=this,u=arguments.length>2&&void 0!==arguments[2]?arguments[2]:null;r(this,t),this._id=0,this._running=!1,this._rollingBack=!1,this._animations=n,this._settings=e,(!u||u<"2022-05-02")&&delete this._settings.speed,lt.forEach((function(t){i._settings[t.key]=i._settings[t.key]||t.def})),this.duration=e.duration,this.offset=e.offset||0,this.rollbackStartOffset=0}return u(t,[{key:"alternate",get:function(){return this._settings.alternate}},{key:"fill",get:function(){return this._settings.fill}},{key:"iterations",get:function(){return this._settings.iterations}},{key:"direction",get:function(){return this._settings.direction}},{key:"speed",get:function(){return this._settings.speed}},{key:"fps",get:function(){return this._settings.fps}},{key:"maxFiniteDuration",get:function(){return this.iterations>0?this.iterations*this.duration:this.duration}},{key:"_apply",value:function(t){for(var n=arguments.length>1&&void 0!==arguments[1]?arguments[1]:{},e=this._animations,r=e.length,i=0,u=0;u<r;u++)n[u]?i++:(n[u]=e[u](t,1),n[u]&&i++);return i}},{key:"_rollback",value:function(t){var n=this,e=1/0,r=null;this.rollbackStartOffset=t,this._rollingBack=!0,this._running=!0;this._id=window.requestAnimationFrame((function i(u){if(n._rollingBack){null==r&&(r=u);var o=Math.round(t-(u-r)*n.speed);if(o>n.duration&&e!==1/0){var a=!!n.alternate&&o/n.duration%2>1,l=o%n.duration;o=(l+=a?n.duration:0)||n.duration}var s=(n.fps?1e3/n.fps:0)*n.speed,f=Math.max(0,o);f<=e-s&&(n.offset=f,e=f,n._apply(f));var c=n.iterations>0&&-1===n.fill&&o>=n.maxFiniteDuration;(o<=0||n.offset<o||c)&&n.stop(),n._id=window.requestAnimationFrame(i)}}))}},{key:"_start",value:function(){var t=this,n=arguments.length>0&&void 0!==arguments[0]?arguments[0]:0,e=-1/0,r=null,i={};this._running=!0;var u=function u(o){null==r&&(r=o);var a=Math.round((o-r)*t.speed+n),l=(t.fps?1e3/t.fps:0)*t.speed;if(a>=e+l&&!t._rollingBack&&(t.offset=a,e=a,t._apply(a,i)===t._animations.length))return void t.pause(!0);t._id=window.requestAnimationFrame(u)};this._id=window.requestAnimationFrame(u)}},{key:"_pause",value:function(){this._id&&window.cancelAnimationFrame(this._id),this._running=!1}},{key:"play",value:function(){if(!this._running)return this._rollingBack?this._rollback(this.offset):this._start(this.offset)}},{key:"stop",value:function(){this._pause(),this.offset=0,this.rollbackStartOffset=0,this._rollingBack=!1,this._apply(0)}},{key:"reachedToEnd",value:function(){return this.iterations>0&&this.offset>=this.iterations*this.duration}},{key:"restart",value:function(){var t=arguments.length>0&&void 0!==arguments[0]&&arguments[0];this.stop(t),this.play(t)}},{key:"pause",value:function(){this._pause()}},{key:"reverse",value:function(){this.direction=-this.direction}}],[{key:"build",value:function(t,n){delete t.animationSettings,t.options=at(t.options,t.root,"5c7f360c"),t.animations.map((function(n){n.settings=at(n.s,t.root,"5c7f360c"),delete n.s,t.animationSettings||(t.animationSettings=n.settings)}));var e=t.version;if(!(t=rt(t,n)))return null;var r=t.options||{},i=new this(t.animations,t.animationSettings,e);return{el:t.svg,options:r,player:i}}},{key:"push",value:function(t){return this.build(t)}},{key:"init",value:function(){var t=this,n=window.__SVGATOR_PLAYER__&&window.__SVGATOR_PLAYER__["5c7f360c"];Array.isArray(n)&&n.splice(0).forEach((function(n){return t.build(n)}))}}]),t}();function ft(t){return d(t)+""}function ct(t){var n=arguments.length>1&&void 0!==arguments[1]?arguments[1]:" ";return t&&t.length?t.map(ft).join(n):""}function ht(t){if(!t)return"transparent";if(null==t.a||t.a>=1){var n=function(t){return 1===(t=parseInt(t).toString(16)).length?"0"+t:t},e=function(t){return t.charAt(0)===t.charAt(1)},r=n(t.r),i=n(t.g),u=n(t.b);return e(r)&&e(i)&&e(u)&&(r=r.charAt(0),i=i.charAt(0),u=u.charAt(0)),"#"+r+i+u}return"rgba("+t.r+","+t.g+","+t.b+","+t.a+")"}function vt(t){return t?"url(#"+t+")":"none"}!function(){for(var t=0,n=["ms","moz","webkit","o"],e=0;e<n.length&&!window.requestAnimationFrame;++e)window.requestAnimationFrame=window[n[e]+"RequestAnimationFrame"],window.cancelAnimationFrame=window[n[e]+"CancelAnimationFrame"]||window[n[e]+"CancelRequestAnimationFrame"];window.requestAnimationFrame||(window.requestAnimationFrame=function(n){var e=Date.now(),r=Math.max(0,16-(e-t)),i=window.setTimeout((function(){n(e+r)}),r);return t=e+r,i},window.cancelAnimationFrame=window.clearTimeout)}();var yt={f:null,i:function(t,n,e){return 0===t?n:1===t?e:{x:q(t,n.x,e.x),y:q(t,n.y,e.y)}},u:function(t,n){return function(e){var r=n(e);t.setAttribute("rx",ft(r.x)),t.setAttribute("ry",ft(r.y))}}},gt={f:null,i:function(t,n,e){return 0===t?n:1===t?e:{width:q(t,n.width,e.width),height:q(t,n.height,e.height)}},u:function(t,n){return function(e){var r=n(e);t.setAttribute("width",ft(r.width)),t.setAttribute("height",ft(r.height))}}};Object.freeze({M:2,L:2,Z:0,H:1,V:1,C:6,Q:4,T:2,S:4,A:7});var dt={},pt=null;function mt(t){var n=function(){if(pt)return pt;if("object"!==("undefined"==typeof document?"undefined":e(document))||!document.createElementNS)return{};var t=document.createElementNS("http://www.w3.org/2000/svg","svg");return t&&t.style?(t.style.position="absolute",t.style.opacity="0.01",t.style.zIndex="-9999",t.style.left="-9999px",t.style.width="1px",t.style.height="1px",pt={svg:t}):{}}().svg;if(!n)return function(t){return null};var r=document.createElementNS(n.namespaceURI,"path");r.setAttributeNS(null,"d",t),r.setAttributeNS(null,"fill","none"),r.setAttributeNS(null,"stroke","none"),n.appendChild(r);var i=r.getTotalLength();return function(t){var n=r.getPointAtLength(i*t);return{x:n.x,y:n.y}}}function bt(t){return dt[t]?dt[t]:dt[t]=mt(t)}function wt(t,n,e,r){if(!t||!r)return!1;var i=["M",t.x,t.y];if(n&&e&&(i.push("C"),i.push(n.x),i.push(n.y),i.push(e.x),i.push(e.y)),n?!e:e){var u=n||e;i.push("Q"),i.push(u.x),i.push(u.y)}return n||e||i.push("L"),i.push(r.x),i.push(r.y),i.join(" ")}function At(t,n,e,r){var i=arguments.length>4&&void 0!==arguments[4]?arguments[4]:1,u=wt(t,n,e,r),o=bt(u);try{return o(i)}catch(t){return null}}function _t(t,n,e){return t+(n-t)*e}function xt(t,n,e){var r=arguments.length>3&&void 0!==arguments[3]&&arguments[3],i={x:_t(t.x,n.x,e),y:_t(t.y,n.y,e)};return r&&(i.a=kt(t,n)),i}function kt(t,n){return Math.atan2(n.y-t.y,n.x-t.x)}function St(t,n,e,r){var i=1-r;return i*i*t+2*i*r*n+r*r*e}function Ot(t,n,e,r){return 2*(1-r)*(n-t)+2*r*(e-n)}function jt(t,n,e,r){var i=arguments.length>4&&void 0!==arguments[4]&&arguments[4],u=At(t,n,null,e,r);return u||(u={x:St(t.x,n.x,e.x,r),y:St(t.y,n.y,e.y,r)}),i&&(u.a=Et(t,n,e,r)),u}function Et(t,n,e,r){return Math.atan2(Ot(t.y,n.y,e.y,r),Ot(t.x,n.x,e.x,r))}function Mt(t,n,e,r,i){var u=i*i;return i*u*(r-t+3*(n-e))+3*u*(t+e-2*n)+3*i*(n-t)+t}function Pt(t,n,e,r,i){var u=1-i;return 3*(u*u*(n-t)+2*u*i*(e-n)+i*i*(r-e))}function It(t,n,e,r,i){var u=arguments.length>5&&void 0!==arguments[5]&&arguments[5],o=At(t,n,e,r,i);return o||(o={x:Mt(t.x,n.x,e.x,r.x,i),y:Mt(t.y,n.y,e.y,r.y,i)}),u&&(o.a=Rt(t,n,e,r,i)),o}function Rt(t,n,e,r,i){return Math.atan2(Pt(t.y,n.y,e.y,r.y,i),Pt(t.x,n.x,e.x,r.x,i))}function Ft(t,n,e){var r=arguments.length>3&&void 0!==arguments[3]&&arguments[3];if(Tt(n)){if(Bt(e))return jt(n,e.start,e,t,r)}else if(Tt(e)){if(qt(n))return jt(n,n.end,e,t,r)}else{if(qt(n))return Bt(e)?It(n,n.end,e.start,e,t,r):jt(n,n.end,e,t,r);if(Bt(e))return jt(n,e.start,e,t,r)}return xt(n,e,t,r)}function Nt(t,n,e){var r=Ft(t,n,e,!0);return r.a=function(t){return arguments.length>1&&void 0!==arguments[1]&&arguments[1]?t+Math.PI:t}(r.a)/m,r}function Tt(t){return!t.type||"corner"===t.type}function Bt(t){return null!=t.start&&!Tt(t)}function qt(t){return null!=t.end&&!Tt(t)}var Dt=new N;var Lt={f:ft,i:B},Ct={f:ft,i:D};function Vt(t,n,e){return t.map((function(t){return function(t,n,e){var r=t.v;if(!r||"g"!==r.t||r.s||!r.v||!r.r)return t;var i=e.getElementById(r.r),u=i&&i.querySelectorAll("stop")||[];return r.s=r.v.map((function(t,n){var e=u[n]&&u[n].getAttribute("offset");return{c:t,o:e=d(parseInt(e)/100)}})),delete r.v,t}(t,0,e)}))}var Gt={gt:"gradientTransform",c:{x:"cx",y:"cy"},rd:"r",f:{x:"x1",y:"y1"},to:{x:"x2",y:"y2"}};function zt(t,n,r,i,u,o,a,l){return Vt(t,0,l),n=function(t,n,e){for(var r,i,u,o=t.length-1,a={},l=0;l<=o;l++)(r=t[l]).e&&(r.e=n(r.e)),r.v&&"g"===(i=r.v).t&&i.r&&(u=e.getElementById(i.r))&&(a[i.r]={e:u,s:u.querySelectorAll("stop")});return a}(t,i,l),function(i){var u=r(i,t,Yt);if(!u)return"none";if("c"===u.t)return ht(u.v);if("g"===u.t){if(!n[u.r])return vt(u.r);var o=n[u.r];return function(t,n){for(var e=t.s,r=e.length;r<n.length;r++){var i=e[e.length-1].cloneNode();i.id=Qt(i.id),t.e.appendChild(i),e=t.s=t.e.querySelectorAll("stop")}for(var u=0,o=e.length,a=n.length-1;u<o;u++)e[u].setAttribute("stop-color",ht(n[Math.min(u,a)].c)),e[u].setAttribute("offset",n[Math.min(u,a)].o)}(o,u.s),Object.keys(Gt).forEach((function(t){if(void 0!==u[t])if("object"!==e(Gt[t])){var n,r="gt"===t?(n=u[t],Array.isArray(n)?"matrix("+n.join(" ")+")":""):u[t],i=Gt[t];o.e.setAttribute(i,r)}else Object.keys(Gt[t]).forEach((function(n){if(void 0!==u[t][n]){var e=u[t][n],r=Gt[t][n];o.e.setAttribute(r,e)}}))})),vt(u.r)}return"none"}}function Yt(t,e,r){if(0===t)return e;if(1===t)return r;if(e&&r){var i=e.t;if(i===r.t)switch(e.t){case"c":return{t:i,v:V(t,e.v,r.v)};case"g":if(e.r===r.r){var u={t:i,s:$t(t,e.s,r.s),r:e.r};return e.gt&&r.gt&&(u.gt=function(t,n,e){var r=n.length;if(r!==e.length)return T(t,n,e);for(var i=new Array(r),u=0;u<r;u++)i[u]=B(t,n[u],e[u]);return i}(t,e.gt,r.gt)),e.c?(u.c=L(t,e.c,r.c),u.rd=q(t,e.rd,r.rd)):e.f&&(u.f=L(t,e.f,r.f),u.to=L(t,e.to,r.to)),u}}if("c"===e.t&&"g"===r.t||"c"===r.t&&"g"===e.t){var o="c"===e.t?e:r,a="g"===e.t?n({},e):n({},r),l=a.s.map((function(t){return{c:o.v,o:t.o}}));return a.s="c"===e.t?$t(t,l,a.s):$t(t,a.s,l),a}}return T(t,e,r)}function $t(t,n,e){if(n.length===e.length)return n.map((function(n,r){return Ut(t,n,e[r])}));for(var r=Math.max(n.length,e.length),i=[],u=0;u<r;u++){var o=Ut(t,n[Math.min(u,n.length-1)],e[Math.min(u,e.length-1)]);i.push(o)}return i}function Ut(t,n,e){return{o:D(t,n.o,e.o||0),c:V(t,n.c,e.c||{})}}function Qt(t){return t.replace(/-fill-([0-9]+)$/,(function(t,n){return"-fill-"+(+n+1)}))}var Ht={fill:zt,"fill-opacity":Ct,stroke:zt,"stroke-opacity":Ct,"stroke-width":Lt,"stroke-dashoffset":{f:ft,i:B},"stroke-dasharray":{f:function(t){var n=arguments.length>1&&void 0!==arguments[1]?arguments[1]:" ";return t&&t.length>0&&(t=t.map((function(t){return d(t,4)}))),ct(t,n)},i:function(t,n,e){var r,i,u,o=n.length,a=e.length;if(o!==a)if(0===o)n=G(o=a,0);else if(0===a)a=o,e=G(o,0);else{var l=(u=(r=o)*(i=a)/function(t,n){for(var e;n;)e=n,n=t%n,t=e;return t||1}(r,i))<0?-u:u;n=z(n,Math.floor(l/o)),e=z(e,Math.floor(l/a)),o=a=l}for(var s=[],f=0;f<o;f++)s.push(d(q(t,n[f],e[f])));return s}},opacity:Ct,transform:function(t,n,r,i){if(!(t=function(t,n){if(!t||"object"!==e(t))return null;var r=!1;for(var i in t)t.hasOwnProperty(i)&&(t[i]&&t[i].length?(t[i].forEach((function(t){t.e&&(t.e=n(t.e))})),r=!0):delete t[i]);return r?t:null}(t,i)))return null;var u=function(e,i,u){var o=arguments.length>3&&void 0!==arguments[3]?arguments[3]:null;return t[e]?r(i,t[e],u):n&&n[e]?n[e]:o};return n&&n.a&&t.o?function(n){var e=r(n,t.o,Nt);return Dt.recomposeSelf(e,u("r",n,B,0)+e.a,u("k",n,L),u("s",n,L),u("t",n,L)).toString()}:function(t){return Dt.recomposeSelf(u("o",t,Ft,null),u("r",t,B,0),u("k",t,L),u("s",t,L),u("t",t,L)).toString()}},r:Lt,"#size":gt,"#radius":yt,_:function(t,n){if(Array.isArray(t))for(var e=0;e<t.length;e++)this[t[e]]=n;else this[t]=n}},Jt=function(t){!function(t,n){if("function"!=typeof n&&null!==n)throw new TypeError("Super expression must either be null or a function");t.prototype=Object.create(n&&n.prototype,{constructor:{value:t,writable:!0,configurable:!0}}),n&&l(t,n)}(o,t);var n,e,i=(n=o,e=s(),function(){var t,r=a(n);if(e){var i=a(this).constructor;t=Reflect.construct(r,arguments,i)}else t=r.apply(this,arguments);return c(this,t)});function o(){return r(this,o),i.apply(this,arguments)}return u(o,null,[{key:"build",value:function(t){var n=h(a(o),"build",this).call(this,t,Ht);if(!n)return null;n.el,n.options,function(t,n,e){t.play()}(n.player)}}]),o}(st);return Jt.init(),Jt}));
(function(s,i,o,w,d,a,b){w[o]=w[o]||{};w[o][s]=w[o][s]||[];w[o][s].push(i);})('5c7f360c',{"root":"eeic1TwCtS81","version":"2022-05-04","animations":[{"elements":{"eeic1TwCtS882":{"transform":{"data":{"o":{"x":206.999359,"y":284.880493,"type":"corner"},"t":{"x":-206.999354,"y":-284.880492}},"keys":{"r":[{"t":800,"v":-4.823908},{"t":1300,"v":0.277123},{"t":1800,"v":-4.823908}]}}},"eeic1TwCtS885":{"transform":{"data":{"o":{"x":218.973394,"y":291.029626,"type":"corner"},"t":{"x":-218.973393,"y":-291.029623}},"keys":{"r":[{"t":900,"v":0},{"t":1300,"v":-5.628419},{"t":1700,"v":0}]}}},"eeic1TwCtS8105":{"transform":{"data":{"t":{"x":-426.467987,"y":-266.701995}},"keys":{"o":[{"t":400,"v":{"x":426.467987,"y":266.701996,"type":"corner"}},{"t":1200,"v":{"x":434.223993,"y":273.548999,"type":"corner"}},{"t":2000,"v":{"x":426.467987,"y":266.701996,"type":"corner"}}],"r":[{"t":0,"v":0},{"t":10,"v":-0.104087},{"t":1000,"v":-10.408662},{"t":2000,"v":-0.9462419999999998}],"s":[{"t":0,"v":{"x":1,"y":1}},{"t":1000,"v":{"x":1.1,"y":1.1}},{"t":2000,"v":{"x":1,"y":1}}]}}},"eeic1TwCtS8114":{"transform":{"data":{"r":-12.57477,"t":{"x":-412.622025,"y":-39.256002}},"keys":{"o":[{"t":0,"v":{"x":412.622025,"y":39.256003,"type":"corner"}},{"t":700,"v":{"x":418.395353,"y":35.489998,"type":"corner"}},{"t":1400,"v":{"x":412.622025,"y":39.256003,"type":"corner"}}],"s":[{"t":0,"v":{"x":1,"y":1}},{"t":1000,"v":{"x":1.2,"y":1.2}},{"t":2000,"v":{"x":1,"y":1}}]}}},"eeic1TwCtS8122":{"transform":{"data":{"t":{"x":-266.206993,"y":-40.185003}},"keys":{"o":[{"t":0,"v":{"x":266.206993,"y":40.185003,"type":"corner"}},{"t":800,"v":{"x":269.701997,"y":47.765001,"type":"corner"}},{"t":1600,"v":{"x":266.206993,"y":40.185003,"type":"corner"}}],"r":[{"t":0,"v":0},{"t":1000,"v":20.054404},{"t":2000,"v":0}],"s":[{"t":0,"v":{"x":1,"y":1}},{"t":500,"v":{"x":0.9,"y":0.9}},{"t":1000,"v":{"x":1,"y":1}}]}}},"eeic1TwCtS8135":{"opacity":[{"t":0,"v":1},{"t":400,"v":0.25},{"t":800,"v":1},{"t":1200,"v":0.25},{"t":1600,"v":1}]},"eeic1TwCtS8147":{"opacity":[{"t":400,"v":1},{"t":800,"v":0.5},{"t":1200,"v":1},{"t":1600,"v":0},{"t":2000,"v":1}]}},"s":"MJDA1ZTkyMzk3YjhjODHk3ODhiODA4Njg1MzlGWNTE0OTQ3NDc0NzQzHMzk3Ylg4MDg5N2M3YNThiODA4Njg1Mzk1MTKQ0NDg0MzM5ODA4YjdLjODk3ODhiODA4NkU4PNThhMzk1MTQ3NDMzOPTdkODBWODM4MzM5NTWE0ODQzMzk3OEw4MzhBiN2M4OTg1Nzg4YlU3RYzM5NTE3ZDc4ODM4YGTdjNDMzOThhODc3YzMdjN2IzOU41MTQ4NDMWzOTdkODc4YTM5NTE0LODQ3NDc5NA|"}],"options":"MHDAxMFU4ODJmUzgwVzHgxVzZlN2Y4MTJmNDcWyZjc5N2M2ZTcxQTJmOOGE/"},'__SVGATOR_PLAYER__',window,document)
]]></script>
</svg>
